<?xml version="1.0" encoding="utf-8"?>
<!-- Generator: Adobe Illustrator 24.0.1, SVG Export Plug-In . SVG Version: 6.00 Build 0)  -->
<svg version="1.1" id="main" xmlns="http://www.w3.org/2000/svg" xmlns:xlink="http://www.w3.org/1999/xlink" x="0px" y="0px"
	 viewBox="0 0 337 296.4" style="enable-background:new 0 0 337 296.4;" xml:space="preserve">
<style type="text/css">
	.st0{fill:#5793CE;}
	.st1{fill:#396CAA;}
	.st2{fill:#D4ECFF;}
	.st3{fill:#FFFFFF;}
	.st4{fill:#EFEFEF;}
	.st5{fill:#173D7A;}
	.st6{fill:#FAFDFF;}
	.st7{opacity:0.4;fill:#D4ECFF;}
	.st8{fill:#274F89;}
	.st9{fill:#0BB783;}
	.st10{fill:#097F58;}
	.st11{fill:#FFC2B0;}
</style>
<g>
	<g>
		<path class="st0" d="M220.8,92.5c-0.4,0-0.7-0.3-0.7-0.7V63.4c0-0.4,0.3-0.7,0.7-0.7s0.7,0.3,0.7,0.7v28.5
			C221.4,92.2,221.1,92.5,220.8,92.5z"/>
		<g>
			<g>
				<rect x="218.3" y="61.6" class="st0" width="4.9" height="10.7"/>
				<path class="st0" d="M222.5,73.3c-1,0.6-2.5,0.6-3.5,0c-1-0.6-1-1.5,0-2c1-0.6,2.5-0.6,3.5,0C223.5,71.8,223.5,72.7,222.5,73.3z
					"/>
			</g>
			<g>
				<rect x="216.7" y="46.7" class="st0" width="8" height="16.7"/>
				<path class="st1" d="M218.3,63.3v3.6c1.5,0.7,3.5,0.7,4.9,0v-3.6C221.8,62.7,219.7,62.7,218.3,63.3z"/>
				<path class="st0" d="M223.6,65.1c-1.6,0.9-4.1,0.9-5.7,0c-1.6-0.9-1.6-2.4,0-3.3c1.6-0.9,4.1-0.9,5.7,0
					C225.2,62.7,225.2,64.2,223.6,65.1z"/>
			</g>
		</g>
	</g>
	<g>
		<path class="st0" d="M248.5,108.1c-0.4,0-0.7-0.3-0.7-0.7V79c0-0.4,0.3-0.7,0.7-0.7c0.4,0,0.7,0.3,0.7,0.7v28.5
			C249.2,107.8,248.9,108.1,248.5,108.1z"/>
		<g>
			<g>
				<rect x="246" y="77.2" class="st0" width="4.9" height="10.7"/>
				<path class="st0" d="M250.3,88.9c-1,0.6-2.5,0.6-3.5,0c-1-0.6-1-1.5,0-2c1-0.6,2.5-0.6,3.5,0C251.2,87.4,251.2,88.3,250.3,88.9z
					"/>
			</g>
			<g>
				<rect x="244.5" y="62.3" class="st0" width="8" height="16.7"/>
				<path class="st1" d="M246,78.9v3.6c1.5,0.7,3.5,0.7,4.9,0v-3.6C249.5,78.3,247.5,78.3,246,78.9z"/>
				<path class="st0" d="M251.3,80.7c-1.6,0.9-4.1,0.9-5.7,0c-1.6-0.9-1.6-2.4,0-3.3c1.6-0.9,4.1-0.9,5.7,0
					C252.9,78.3,252.9,79.8,251.3,80.7z"/>
			</g>
		</g>
	</g>
	<g>
		<g>
			<polygon class="st0" points="275.5,90.1 286.2,83.8 276,71 273.3,75.4 			"/>
			<path class="st0" d="M197.5,20l17.1-9.9c0,0-0.6,9.8-0.6,9.9s-9.8,3.1-9.8,3.1L197.5,20z"/>
			<path class="st0" d="M278.5,58c-1.3-0.8-2.6-1.2-3.7-1.4c-1.7-9.1-8.1-18.7-15.6-23.1c-2.3-1.3-4.4-2-6.4-2.2
				c-1-11-8.7-23.5-18-28.9c-4.9-2.8-9.3-3.1-12.5-1.4l0,0l-0.2,0.1c-0.1,0-0.2,0.1-0.2,0.1l-10.1,6l3.4,2.7c-3,1.3-4.9,4.7-4.9,9.7
				c0,9.2,6.5,20.4,14.5,25L278.5,83c6,3.5,10.9,0.7,10.9-6.3C289.3,69.9,284.5,61.4,278.5,58z"/>
			<path class="st0" d="M210.7,15.5L233.9,2c-4.5-2.3-8.6-2.5-11.6-0.9l0,0l-0.2,0.1c-0.1,0-0.2,0.1-0.2,0.1l-10.1,6l3.4,2.7
				C213,10.8,211.5,12.8,210.7,15.5z"/>
			<path class="st0" d="M253.6,55.4l16.9-9.9c-2.9-5-6.9-9.4-11.3-12c-0.6-0.3-1.2-0.6-1.7-0.9l-21.5,12.6L253.6,55.4z"/>
			<path class="st2" d="M216.6,8.4l7.5,4.4l13.8-8.1c-1-0.8-2-1.5-3.1-2.1c-1.7-1-3.3-1.6-4.8-2L216.6,8.4z"/>
			<path class="st2" d="M268.6,42.6l-13.5,8l4.7,5.2l12.3-7.2C271.1,46.4,270,44.4,268.6,42.6z"/>
			<path class="st2" d="M267.9,64.2c-1.3-0.8-2.6-1.2-3.7-1.4c-1.7-9.1-8-18.7-15.6-23.1c-2.3-1.3-4.4-2-6.4-2.2
				c-1-11-8.7-23.5-18-28.9c-10-5.8-18.1-1.1-18.1,10.5c0,0.4,0,0.8,0,1.2c-7.3-3.4-13,0.4-13,9.1c0,9.2,6.5,20.4,14.5,25l60.3,34.8
				c6,3.5,10.9,0.7,10.9-6.3C278.7,76.1,273.9,67.7,267.9,64.2z"/>
			<g>
				<path class="st3" d="M206.1,20.4c0-0.4,0-0.8,0-1.2c0,0,0,0,0,0c-4-1.6-7.5-0.9-9.7,1.6C198.8,18.8,202.2,18.5,206.1,20.4z"/>
				<path class="st3" d="M268.7,63.4c-1.3-0.8-2.6-1.2-3.7-1.4c-1.7-9.1-8-18.7-15.6-23.1c-2.3-1.3-4.4-2-6.4-2.2
					c-1-11-8.7-23.5-18-28.9c-6.2-3.6-11.7-3.1-15,0.5c3.3-2.8,8.4-2.9,14.1,0.3c9.3,5.4,17,17.9,18,28.9c2,0.2,4.1,0.9,6.4,2.2
					c7.5,4.4,13.9,14,15.6,23.1c1.2,0.2,2.4,0.6,3.7,1.4c6,3.5,10.9,11.9,10.9,18.8c0,2.5-0.6,4.5-1.7,5.8c1.6-1.3,2.6-3.5,2.6-6.6
					C279.6,75.3,274.7,66.8,268.7,63.4z"/>
			</g>
			<g>
				<path class="st1" d="M204.8,23.1l4.5,2.1l-0.2-5c0-0.4,0-0.7,0-1c0-4.5,1.3-7.7,3.8-9.1c2.4-1.4,5.9-1,9.8,1.3
					c8.3,4.8,15.5,16.5,16.5,26.6l0.2,2.5l2.5,0.2c1.6,0.1,3.3,0.7,5.1,1.8c6.6,3.8,12.5,12.6,14.1,21l0.4,2.1l2.1,0.3
					c0.8,0.1,1.7,0.5,2.7,1c5.1,2.9,9.3,10.3,9.3,16.2c0,2.2-0.6,3.8-1.7,4.4c-1.1,0.6-2.8,0.3-4.6-0.8l-60.3-34.8
					c-7-4-12.9-14.3-12.9-22.4c0-3.2,0.9-5.6,2.6-6.6c0.7-0.4,1.5-0.6,2.4-0.6C202.2,22.2,203.5,22.5,204.8,23.1z"/>
			</g>
		</g>
		<g>
			<polygon class="st0" points="234.9,60.9 236.5,60.1 235,58.9 			"/>
			<polygon class="st0" points="230.2,39.4 231.7,38.6 231.7,39.4 			"/>
			<polygon class="st0" points="239.5,55.9 241.1,55.1 238,52.1 			"/>
			<g>
				<path class="st0" d="M236.1,60l-7.5-4.4c-0.4-0.2-0.7-0.8-0.7-1.3l0-8.7l8.9,5.3l0,8.7C236.8,60.1,236.5,60.3,236.1,60z"/>
				<path class="st0" d="M231.7,38.6l-8.1,5.2c-0.3,0.2-0.1,1.1,0.5,1.4l8.3,4.9l8.3,4.9c0.5,0.3,0.8-0.2,0.5-0.8L233,39.4
					C232.7,38.8,232,38.4,231.7,38.6z"/>
			</g>
			<g>
				<path class="st2" d="M234.5,60.9l-7.5-4.4c-0.4-0.2-0.7-0.8-0.7-1.3l0-8.7l8.9,5.3l0,8.7C235.1,60.9,234.8,61.1,234.5,60.9z"/>
				<path class="st2" d="M230.1,39.5l-8.1,5.2c-0.3,0.2-0.1,1.1,0.5,1.4l8.3,4.9l8.3,4.9c0.5,0.3,0.8-0.2,0.5-0.8l-8.1-14.8
					C231.1,39.6,230.4,39.2,230.1,39.5z"/>
			</g>
		</g>
	</g>
	<path class="st2" d="M220,70.4c0,0.5-0.3,0.7-0.8,0.4c-0.4-0.2-0.8-0.8-0.8-1.3c0-0.5,0.3-0.7,0.8-0.4
		C219.7,69.3,220,69.9,220,70.4z"/>
	<path class="st2" d="M247.8,86.2c0,0.5-0.3,0.7-0.8,0.4c-0.4-0.2-0.8-0.8-0.8-1.3c0-0.5,0.3-0.7,0.8-0.4S247.8,85.7,247.8,86.2z"/>
</g>
<g>
	<path class="st4" d="M30.4,207.3l-17.3-10c-7.2-4.2-7.2-11,0-15.1l15.8-9.1c3.2-1.9,3.2-4.9,0-6.8l-13.8-7.9
		c-7.2-4.2-7.2-11,0-15.1l17.2-10c7.2-4.2,19-4.2,26.2,0l11.1,6.4l-7.2,4.2l-11.1-6.4c-3.2-1.9-8.5-1.9-11.7,0l-17.2,10
		c-3.2,1.9-3.2,4.9,0,6.8l13.8,7.9c7.2,4.2,7.2,11,0,15.1l-15.8,9.1c-3.2,1.9-3.2,4.9,0,6.8l17.3,10L30.4,207.3z"/>
</g>
<g>
	<g>
		<path class="st0" d="M7.9,181.8l-0.2-0.4v1.7l0,0c-0.1,2.8,1.7,5.6,5.4,7.7l17.3,10l7.2-4.2l-17.3-10c-1-0.6-1.7-1.3-2.1-2
			c-3.9-0.3-6.9-2.3-9.6-4.8C8.3,180.5,8,181.1,7.9,181.8z"/>
		<path class="st5" d="M58.5,126.8c-7.2-4.2-19-4.2-26.2,0l-17.2,10c-2.1,1.2-3.6,2.7-4.5,4.3c2.8,2.6,5.5,5.5,9.9,5.1
			c-1.2-1.7-0.6-3.7,1.8-5.1l17.2-10c3.2-1.9,8.5-1.9,11.7,0l11.1,6.4l7.2-4.2L58.5,126.8z"/>
		<path class="st0" d="M38.9,157.8c-0.8-0.8-1.7-1.5-2.8-2.1l-13.8-7.9c-0.8-0.5-1.4-1-1.8-1.6c-4.4,0.4-7.1-2.4-9.9-5.1
			c-0.3,0.6-0.5,1.1-0.7,1.7l-0.2-0.3v1.9l0,0c0,2.8,1.8,5.5,5.4,7.6l13.8,7.9c2.1,1.2,2.8,2.9,2.2,4.5
			C33.9,163.6,36.1,160.1,38.9,157.8z"/>
		<path class="st5" d="M41.3,161.7c-0.3-1.4-1.1-2.7-2.4-3.9c-2.8,2.3-5,5.9-7.9,6.6c-0.3,0.8-1.1,1.6-2.2,2.3l-15.8,9.1
			c-2.1,1.2-3.6,2.7-4.5,4.2c2.8,2.5,5.8,4.5,9.6,4.8c-0.9-1.6-0.2-3.5,2.1-4.8l15.8-9.1c3.6-2.1,5.4-4.8,5.4-7.5l0,0v-0.1v0v-1.8
			L41.3,161.7z"/>
		<g>
			<path class="st3" d="M15.1,150l13.8,7.9c1.4,0.8,2.2,1.9,2.4,3c0.2-1.3-0.6-2.7-2.4-3.8l-13.8-7.9c-3.4-2-5.2-4.6-5.4-7.2
				C9.5,144.9,11.3,147.8,15.1,150z"/>
			<path class="st3" d="M30.4,198.2l-17.3-10c-3.4-2-5.2-4.6-5.4-7.2c-0.2,2.9,1.6,5.8,5.4,7.9l17.3,10l7.2-4.2l-0.7-0.4L30.4,198.2
				z"/>
			<path class="st3" d="M62.4,134.7l-11.1-6.4c-3.2-1.9-8.5-1.9-11.7,0l-17.2,10c-1.8,1-2.6,2.4-2.4,3.8c0.2-1.1,0.9-2.2,2.4-3
				l17.2-10c3.2-1.9,8.5-1.9,11.7,0l11.1,6.4l7.2-4.2l-0.7-0.4L62.4,134.7z"/>
			<path class="st3" d="M36.1,168.1l-15.8,9.1c-1.8,1-2.6,2.4-2.4,3.8c0.2-1.1,0.9-2.2,2.4-3l15.8-9.1c3.8-2.2,5.6-5.1,5.4-7.9
				C41.3,163.5,39.5,166.1,36.1,168.1z"/>
		</g>
		<g>
			<g>
				<path class="st2" d="M30.4,198.9l-17.3-10c-7.2-4.2-7.2-11,0-15.1l15.8-9.1c3.2-1.9,3.2-4.9,0-6.8L15.1,150
					c-7.2-4.2-7.2-11,0-15.1l17.2-10c7.2-4.2,19-4.2,26.2,0l11.1,6.4l-7.2,4.2l-11.1-6.4c-3.2-1.9-8.5-1.9-11.7,0l-17.2,10
					c-3.2,1.9-3.2,4.9,0,6.8l13.8,7.9c7.2,4.2,7.2,11,0,15.1L20.3,178c-3.2,1.9-3.2,4.9,0,6.8l17.3,10L30.4,198.9z"/>
			</g>
			<g>
				<path class="st0" d="M39.1,193.3L39.1,193.3c-0.3-0.2-0.8-0.2-1.2,0.1l-8,4.6c-0.9,0.5-1.7,1.8-1.7,2.9c0,0.5,0.2,0.8,0.4,1
					l8.6,5l10.3-8.7L39.1,193.3z"/>
				<path class="st0" d="M46.3,198.3l-8,4.6c-0.9,0.5-1.7,1.8-1.7,2.9s0.7,1.5,1.7,1l8-4.6c0.9-0.5,1.7-1.8,1.7-2.9
					S47.3,197.8,46.3,198.3z"/>
			</g>
		</g>
	</g>
	<path class="st0" d="M61.4,123.7L61.4,123.7c-0.3-0.2-0.8-0.2-1.2,0.1l-8,4.6c-0.9,0.5-1.7,1.8-1.7,2.9c0,0.5,0.2,0.8,0.4,1l8.6,5
		l10.3-8.7L61.4,123.7z"/>
	<g>
		<g>
			<g>
				<path class="st4" d="M99.8,186.8l-41.5-23.6c-1.5-0.9-1.3-2.4,0.4-3.4l23.9-13.8c1.8-1,4.4-1.1,5.9-0.2l41.5,23.6
					c1.5,0.9,1.3,2.4-0.4,3.4l-23.9,13.8C104,187.5,101.3,187.6,99.8,186.8z"/>
				<path class="st1" d="M133.7,161.4L133.7,161.4V64.6L95.2,54.5l-7.1-4.1c-1.6-0.9-4.5-0.8-6.3,0.3l-6.6,3.8l-20.5,0l6.1,93.4
					c0,0.6,0.3,1.2,1.1,1.7l38.4,29c1.6,0.9,4.5,0.8,6.3-0.3l25.6-14.8C133.2,162.9,133.7,162.1,133.7,161.4z"/>
				<path class="st2" d="M85.2,49.8c-1.2,0-2.4,0.3-3.4,0.9l-6.6,3.8l-20.5,0v97c0,0.6,0.3,1.2,1.1,1.7l44.5,25.4
					c0.8,0.5,1.8,0.7,2.9,0.6l0.5-97.6L85.2,49.8z"/>
				<path class="st0" d="M100.6,178.8c1.4,0.6,3.4,0.6,5.1-0.1V80.4h-5.1V178.8z"/>
				<path class="st2" d="M100.2,81.6L55.7,56.2c-1.6-0.9-1.4-2.6,0.5-3.7l25.6-14.8c1.9-1.1,4.7-1.2,6.3-0.3l44.5,25.4
					c1.6,0.9,1.4,2.6-0.5,3.7l-25.6,14.8C104.7,82.4,101.8,82.5,100.2,81.6z"/>
				<path class="st6" d="M132.1,64.8l-25.6,14.8c-1.9,1.1-4.7,1.2-6.3,0.3L55.7,54.4c-0.4-0.2-0.6-0.5-0.8-0.7
					c-0.6,0.9-0.3,1.9,0.8,2.5l44.5,25.4c1.6,0.9,4.5,0.8,6.3-0.3l25.6-14.8c1.5-0.8,1.9-2,1.3-2.9C133.1,64,132.7,64.4,132.1,64.8z
					"/>
				<g>
					<path class="st5" d="M101.5,71.3L71.8,54.2c-0.8-0.4-0.7-1.2,0.2-1.7l12-6.9c0.9-0.5,2.2-0.6,3-0.1l29.6,17.2
						c0.8,0.4,0.7,1.2-0.2,1.7l-12,6.9C103.5,71.7,102.2,71.8,101.5,71.3z"/>
					<g>
						<path class="st2" d="M85.5,54.9l-1.7-1c-0.1-0.1-0.1-0.2,0-0.2l1.7-1c0.1-0.1,0.3-0.1,0.4,0l1.7,1c0.1,0.1,0.1,0.2,0,0.2
							l-1.7,1C85.8,55,85.6,55,85.5,54.9z"/>
						<path class="st2" d="M91.2,58.2l-1.7-1c-0.1-0.1-0.1-0.2,0-0.2l1.7-1c0.1-0.1,0.3-0.1,0.4,0l1.7,1c0.1,0.1,0.1,0.2,0,0.2
							l-1.7,1C91.5,58.3,91.3,58.3,91.2,58.2z"/>
						<path class="st2" d="M96.9,61.5l-1.7-1c-0.1-0.1-0.1-0.2,0-0.2l1.7-1c0.1-0.1,0.3-0.1,0.4,0l1.7,1c0.1,0.1,0.1,0.2,0,0.2
							l-1.7,1C97.2,61.6,97,61.6,96.9,61.5z"/>
						<path class="st2" d="M102.7,64.8l-1.7-1c-0.1-0.1-0.1-0.2,0-0.2l1.7-1c0.1-0.1,0.3-0.1,0.4,0l1.7,1c0.1,0.1,0.1,0.2,0,0.2
							l-1.7,1C103,64.9,102.8,64.9,102.7,64.8z"/>
					</g>
					<path class="st0" d="M71.8,54.2L71.8,54.2c0.1,0,0.1-0.1,0.2-0.1l12-6.9c0.9-0.5,2.2-0.6,3-0.1l29.6,17.1
						c0.7-0.5,0.7-1.2,0-1.6L87,45.4c-0.8-0.4-2.1-0.4-3,0.1l-12,6.9C71.2,53,71.1,53.7,71.8,54.2z"/>
				</g>
			</g>
			<g>
				<path class="st5" d="M111.5,100.8l16.8-9.6c0.9-0.5,1.7-2,1.7-3.3v-6c0-1.3-0.8-1.8-1.7-1.3l-16.8,9.6c-0.9,0.5-1.7,2-1.7,3.3v6
					C109.8,100.7,110.6,101.3,111.5,100.8z"/>
				<path class="st3" d="M129.2,80.4c0.3,0.2,0.4,0.7,0.4,1.3v6c0,1.3-0.8,2.7-1.7,3.3l-16.8,9.6c-0.3,0.2-0.6,0.2-0.8,0.2
					c0.3,0.3,0.8,0.3,1.3,0l16.8-9.6c0.9-0.5,1.7-2,1.7-3.3v-6C130.1,81,129.7,80.4,129.2,80.4z"/>
				<g>
					<path class="st1" d="M116.6,94.2l1.5-0.9c0.2-0.1,0.4-0.4,0.4-0.7V91c0-0.3-0.2-0.4-0.4-0.3l-1.5,0.9c-0.2,0.1-0.4,0.4-0.4,0.7
						V94C116.2,94.2,116.4,94.4,116.6,94.2z"/>
					<path class="st3" d="M121.8,91.3l1.5-0.9c0.2-0.1,0.4-0.4,0.4-0.7V88c0-0.3-0.2-0.4-0.4-0.3l-1.5,0.9c-0.2,0.1-0.4,0.4-0.4,0.7
						V91C121.4,91.2,121.6,91.4,121.8,91.3z"/>
				</g>
			</g>
			<g>
				<path class="st5" d="M111.5,144.3l16.8-9.6c0.9-0.5,1.7-2,1.7-3.3v-6c0-1.3-0.8-1.8-1.7-1.3l-16.8,9.6c-0.9,0.5-1.7,2-1.7,3.3v6
					C109.8,144.2,110.6,144.8,111.5,144.3z"/>
				<path class="st3" d="M129.2,123.9c0.3,0.2,0.4,0.7,0.4,1.3v6c0,1.3-0.8,2.7-1.7,3.3l-16.8,9.6c-0.3,0.2-0.6,0.2-0.8,0.2
					c0.3,0.3,0.8,0.3,1.3,0l16.8-9.6c0.9-0.5,1.7-2,1.7-3.3v-6C130.1,124.5,129.7,123.9,129.2,123.9z"/>
				<g>
					<path class="st1" d="M116.6,137.7l1.5-0.9c0.2-0.1,0.4-0.4,0.4-0.7v-1.6c0-0.3-0.2-0.4-0.4-0.3l-1.5,0.9
						c-0.2,0.1-0.4,0.4-0.4,0.7v1.6C116.2,137.7,116.4,137.9,116.6,137.7z"/>
					<path class="st3" d="M121.8,134.8l1.5-0.9c0.2-0.1,0.4-0.4,0.4-0.7v-1.6c0-0.3-0.2-0.4-0.4-0.3l-1.5,0.9
						c-0.2,0.1-0.4,0.4-0.4,0.7v1.6C121.4,134.7,121.6,134.9,121.8,134.8z"/>
				</g>
			</g>
			<g>
				<path class="st5" d="M111.5,166l16.8-9.6c0.9-0.5,1.7-2,1.7-3.3v-6c0-1.3-0.8-1.8-1.7-1.3l-16.8,9.6c-0.9,0.5-1.7,2-1.7,3.3v6
					C109.8,166,110.6,166.6,111.5,166z"/>
				<path class="st3" d="M129.2,145.6c0.3,0.2,0.4,0.7,0.4,1.3v6c0,1.3-0.8,2.7-1.7,3.3l-16.8,9.6c-0.3,0.2-0.6,0.2-0.8,0.2
					c0.3,0.3,0.8,0.3,1.3,0l16.8-9.6c0.9-0.5,1.7-2,1.7-3.3v-6C130.1,146.2,129.7,145.7,129.2,145.6z"/>
				<g>
					<path class="st1" d="M116.6,159.5l1.5-0.9c0.2-0.1,0.4-0.4,0.4-0.7v-1.6c0-0.3-0.2-0.4-0.4-0.3l-1.5,0.9
						c-0.2,0.1-0.4,0.4-0.4,0.7v1.6C116.2,159.5,116.4,159.6,116.6,159.5z"/>
					<path class="st3" d="M121.8,156.5l1.5-0.9c0.2-0.1,0.4-0.4,0.4-0.7v-1.6c0-0.3-0.2-0.4-0.4-0.3l-1.5,0.9
						c-0.2,0.1-0.4,0.4-0.4,0.7v1.6C121.4,156.5,121.6,156.6,121.8,156.5z"/>
				</g>
			</g>
			<g>
				<path class="st5" d="M111.5,122.5l16.8-9.6c0.9-0.5,1.7-2,1.7-3.3v-6c0-1.3-0.8-1.8-1.7-1.3l-16.8,9.6c-0.9,0.5-1.7,2-1.7,3.3v6
					C109.8,122.5,110.6,123.1,111.5,122.5z"/>
				<path class="st3" d="M129.2,102.1c0.3,0.2,0.4,0.7,0.4,1.3v6c0,1.3-0.8,2.7-1.7,3.3l-16.8,9.6c-0.3,0.2-0.6,0.2-0.8,0.2
					c0.3,0.3,0.8,0.3,1.3,0l16.8-9.6c0.9-0.5,1.7-2,1.7-3.3v-6C130.1,102.7,129.7,102.2,129.2,102.1z"/>
				<g>
					<path class="st1" d="M116.6,116l1.5-0.9c0.2-0.1,0.4-0.4,0.4-0.7v-1.6c0-0.3-0.2-0.4-0.4-0.3l-1.5,0.9
						c-0.2,0.1-0.4,0.4-0.4,0.7v1.6C116.2,116,116.4,116.1,116.6,116z"/>
					<path class="st3" d="M121.8,113l1.5-0.9c0.2-0.1,0.4-0.4,0.4-0.7v-1.6c0-0.3-0.2-0.4-0.4-0.3l-1.5,0.9
						c-0.2,0.1-0.4,0.4-0.4,0.7v1.6C121.4,113,121.6,113.1,121.8,113z"/>
				</g>
			</g>
		</g>
		<g>
			<path class="st0" d="M97,94.6L58.1,72.2c-0.9-0.5-1.6-1.8-1.6-3v-7.4c0-1.2,0.7-1.7,1.6-1.2L97,83c0.9,0.5,1.6,1.8,1.6,3v7.4
				C98.5,94.6,97.8,95.1,97,94.6z"/>
			<path class="st7" d="M95.8,92L59.2,70.9c-0.4-0.3-0.8-0.9-0.8-1.5v-5.6c0-0.6,0.4-0.9,0.8-0.6l36.6,21.1c0.4,0.3,0.8,0.9,0.8,1.5
				v5.6C96.6,92,96.3,92.3,95.8,92z"/>
			<path class="st2" d="M66.9,72.5l-5.5-3.2c-0.4-0.2-0.8-0.9-0.8-1.5l0,0c0-0.6,0.3-0.8,0.8-0.6l5.5,3.2c0.4,0.2,0.8,0.9,0.8,1.5
				l0,0C67.6,72.5,67.3,72.7,66.9,72.5z"/>
			<path class="st5" d="M71.5,74.1c0,0.6-0.4,0.8-0.9,0.5c-0.5-0.3-0.9-1-0.9-1.6c0-0.6,0.4-0.8,0.9-0.5
				C71.1,72.9,71.5,73.6,71.5,74.1z"/>
			<path class="st5" d="M74.7,75.9c0,0.6-0.4,0.8-0.9,0.5c-0.5-0.3-0.9-1-0.9-1.6c0-0.6,0.4-0.8,0.9-0.5
				C74.3,74.7,74.7,75.4,74.7,75.9z"/>
			<path class="st2" d="M77.8,77.8c0,0.6-0.4,0.8-0.9,0.5c-0.5-0.3-0.9-1-0.9-1.6c0-0.6,0.4-0.8,0.9-0.5
				C77.4,76.5,77.8,77.2,77.8,77.8z"/>
			<path class="st5" d="M81,79.6c0,0.6-0.4,0.8-0.9,0.5c-0.5-0.3-0.9-1-0.9-1.6s0.4-0.8,0.9-0.5C80.6,78.3,81,79,81,79.6z"/>
			<path class="st5" d="M94.3,88.9l-1.8-1.1c-0.3-0.2-0.5-0.6-0.5-1V85c0-0.4,0.2-0.5,0.5-0.4l1.8,1.1c0.3,0.2,0.5,0.6,0.5,1v1.9
				C94.8,88.9,94.6,89.1,94.3,88.9z"/>
		</g>
		<g>
			<path class="st0" d="M97,107.7L58.1,85.2c-0.9-0.5-1.6-1.8-1.6-3v-7.4c0-1.2,0.7-1.7,1.6-1.2L97,96.1c0.9,0.5,1.6,1.8,1.6,3v7.4
				C98.5,107.6,97.8,108.2,97,107.7z"/>
			<path class="st7" d="M95.8,105.1L59.2,83.9c-0.4-0.3-0.8-0.9-0.8-1.5v-5.6c0-0.6,0.4-0.9,0.8-0.6l36.6,21.1
				c0.4,0.3,0.8,0.9,0.8,1.5v5.6C96.6,105.1,96.3,105.3,95.8,105.1z"/>
			<path class="st2" d="M66.9,85.5l-5.5-3.2c-0.4-0.2-0.8-0.9-0.8-1.5l0,0c0-0.6,0.3-0.8,0.8-0.6l5.5,3.2c0.4,0.2,0.8,0.9,0.8,1.5
				l0,0C67.6,85.5,67.3,85.8,66.9,85.5z"/>
			<path class="st3" d="M71.5,87.2c0,0.6-0.4,0.8-0.9,0.5c-0.5-0.3-0.9-1-0.9-1.6s0.4-0.8,0.9-0.5C71.1,85.9,71.5,86.6,71.5,87.2z"
				/>
			<path class="st5" d="M74.7,89c0,0.6-0.4,0.8-0.9,0.5c-0.5-0.3-0.9-1-0.9-1.6c0-0.6,0.4-0.8,0.9-0.5C74.3,87.7,74.7,88.4,74.7,89z
				"/>
			<path class="st2" d="M77.8,90.8c0,0.6-0.4,0.8-0.9,0.5c-0.5-0.3-0.9-1-0.9-1.6c0-0.6,0.4-0.8,0.9-0.5
				C77.4,89.6,77.8,90.3,77.8,90.8z"/>
			<path class="st5" d="M81,92.7c0,0.6-0.4,0.8-0.9,0.5c-0.5-0.3-0.9-1-0.9-1.6c0-0.6,0.4-0.8,0.9-0.5C80.6,91.4,81,92.1,81,92.7z"
				/>
			<path class="st5" d="M94.3,102l-1.8-1.1c-0.3-0.2-0.5-0.6-0.5-1V98c0-0.4,0.2-0.5,0.5-0.4l1.8,1.1c0.3,0.2,0.5,0.6,0.5,1v1.9
				C94.8,102,94.6,102.1,94.3,102z"/>
		</g>
		<g>
			<path class="st0" d="M97,120.7L58.1,98.3c-0.9-0.5-1.6-1.8-1.6-3v-7.4c0-1.2,0.7-1.7,1.6-1.2L97,109.1c0.9,0.5,1.6,1.8,1.6,3v7.4
				C98.5,120.7,97.8,121.2,97,120.7z"/>
			<path class="st7" d="M95.8,118.1L59.2,97c-0.4-0.3-0.8-0.9-0.8-1.5v-5.6c0-0.6,0.4-0.9,0.8-0.6l36.6,21.1
				c0.4,0.3,0.8,0.9,0.8,1.5v5.6C96.6,118.1,96.3,118.4,95.8,118.1z"/>
			<path class="st2" d="M66.9,98.6l-5.5-3.2c-0.4-0.2-0.8-0.9-0.8-1.5l0,0c0-0.6,0.3-0.8,0.8-0.6l5.5,3.2c0.4,0.2,0.8,0.9,0.8,1.5
				l0,0C67.6,98.6,67.3,98.8,66.9,98.6z"/>
			<path class="st3" d="M71.5,100.2c0,0.6-0.4,0.8-0.9,0.5c-0.5-0.3-0.9-1-0.9-1.6s0.4-0.8,0.9-0.5C71.1,99,71.5,99.7,71.5,100.2z"
				/>
			<path class="st5" d="M74.7,102.1c0,0.6-0.4,0.8-0.9,0.5c-0.5-0.3-0.9-1-0.9-1.6s0.4-0.8,0.9-0.5
				C74.3,100.8,74.7,101.5,74.7,102.1z"/>
			<path class="st2" d="M77.8,103.9c0,0.6-0.4,0.8-0.9,0.5c-0.5-0.3-0.9-1-0.9-1.6c0-0.6,0.4-0.8,0.9-0.5
				C77.4,102.6,77.8,103.3,77.8,103.9z"/>
			<path class="st5" d="M81,105.7c0,0.6-0.4,0.8-0.9,0.5c-0.5-0.3-0.9-1-0.9-1.6c0-0.6,0.4-0.8,0.9-0.5
				C80.6,104.4,81,105.1,81,105.7z"/>
			<path class="st5" d="M94.3,115l-1.8-1.1c-0.3-0.2-0.5-0.6-0.5-1v-1.9c0-0.4,0.2-0.5,0.5-0.4l1.8,1.1c0.3,0.2,0.5,0.6,0.5,1v1.9
				C94.8,115,94.6,115.2,94.3,115z"/>
		</g>
		<g>
			<path class="st0" d="M97,133.8l-38.8-22.4c-0.9-0.5-1.6-1.8-1.6-3V101c0-1.2,0.7-1.7,1.6-1.2L97,122.2c0.9,0.5,1.6,1.8,1.6,3v7.4
				C98.5,133.8,97.8,134.3,97,133.8z"/>
			<path class="st7" d="M95.8,131.2l-36.6-21.1c-0.4-0.3-0.8-0.9-0.8-1.5V103c0-0.6,0.4-0.9,0.8-0.6l36.6,21.1
				c0.4,0.3,0.8,0.9,0.8,1.5v5.6C96.6,131.2,96.3,131.4,95.8,131.2z"/>
			<path class="st2" d="M66.9,111.6l-5.5-3.2c-0.4-0.2-0.8-0.9-0.8-1.5l0,0c0-0.6,0.3-0.8,0.8-0.6l5.5,3.2c0.4,0.2,0.8,0.9,0.8,1.5
				l0,0C67.6,111.6,67.3,111.9,66.9,111.6z"/>
			<path class="st5" d="M71.5,113.3c0,0.6-0.4,0.8-0.9,0.5c-0.5-0.3-0.9-1-0.9-1.6s0.4-0.8,0.9-0.5C71.1,112,71.5,112.7,71.5,113.3z
				"/>
			<path class="st5" d="M74.7,115.1c0,0.6-0.4,0.8-0.9,0.5c-0.5-0.3-0.9-1-0.9-1.6s0.4-0.8,0.9-0.5
				C74.3,113.9,74.7,114.6,74.7,115.1z"/>
			<path class="st2" d="M77.8,116.9c0,0.6-0.4,0.8-0.9,0.5c-0.5-0.3-0.9-1-0.9-1.6c0-0.6,0.4-0.8,0.9-0.5
				C77.4,115.7,77.8,116.4,77.8,116.9z"/>
			<path class="st5" d="M81,118.8c0,0.6-0.4,0.8-0.9,0.5c-0.5-0.3-0.9-1-0.9-1.6c0-0.6,0.4-0.8,0.9-0.5
				C80.6,117.5,81,118.2,81,118.8z"/>
			<path class="st2" d="M94.3,128.1l-1.8-1.1c-0.3-0.2-0.5-0.6-0.5-1v-1.9c0-0.4,0.2-0.5,0.5-0.4l1.8,1.1c0.3,0.2,0.5,0.6,0.5,1v1.9
				C94.8,128.1,94.6,128.2,94.3,128.1z"/>
		</g>
		<g>
			<path class="st0" d="M97,146.8l-38.8-22.4c-0.9-0.5-1.6-1.8-1.6-3V114c0-1.2,0.7-1.7,1.6-1.2L97,135.2c0.9,0.5,1.6,1.8,1.6,3v7.4
				C98.5,146.8,97.8,147.3,97,146.8z"/>
			<path class="st7" d="M95.8,144.3l-36.6-21.1c-0.4-0.3-0.8-0.9-0.8-1.5V116c0-0.6,0.4-0.9,0.8-0.6l36.6,21.1
				c0.4,0.3,0.8,0.9,0.8,1.5v5.6C96.6,144.2,96.3,144.5,95.8,144.3z"/>
			<path class="st2" d="M66.9,124.7l-5.5-3.2c-0.4-0.2-0.8-0.9-0.8-1.5l0,0c0-0.6,0.3-0.8,0.8-0.6l5.5,3.2c0.4,0.2,0.8,0.9,0.8,1.5
				l0,0C67.6,124.7,67.3,125,66.9,124.7z"/>
			<path class="st5" d="M71.5,126.4c0,0.6-0.4,0.8-0.9,0.5c-0.5-0.3-0.9-1-0.9-1.6s0.4-0.8,0.9-0.5
				C71.1,125.1,71.5,125.8,71.5,126.4z"/>
			<path class="st3" d="M74.7,128.2c0,0.6-0.4,0.8-0.9,0.5c-0.5-0.3-0.9-1-0.9-1.6s0.4-0.8,0.9-0.5
				C74.3,126.9,74.7,127.6,74.7,128.2z"/>
			<path class="st2" d="M77.8,130c0,0.6-0.4,0.8-0.9,0.5c-0.5-0.3-0.9-1-0.9-1.6s0.4-0.8,0.9-0.5C77.4,128.7,77.8,129.4,77.8,130z"
				/>
			<path class="st3" d="M81,131.8c0,0.6-0.4,0.8-0.9,0.5c-0.5-0.3-0.9-1-0.9-1.6s0.4-0.8,0.9-0.5C80.6,130.6,81,131.3,81,131.8z"/>
			<path class="st2" d="M94.3,141.2l-1.8-1.1c-0.3-0.2-0.5-0.6-0.5-1v-1.9c0-0.4,0.2-0.5,0.5-0.4l1.8,1.1c0.3,0.2,0.5,0.6,0.5,1v1.9
				C94.8,141.1,94.6,141.3,94.3,141.2z"/>
		</g>
		<g>
			<path class="st0" d="M97,159.9l-38.8-22.4c-0.9-0.5-1.6-1.8-1.6-3v-7.4c0-1.2,0.7-1.7,1.6-1.2L97,148.3c0.9,0.5,1.6,1.8,1.6,3
				v7.4C98.5,159.9,97.8,160.4,97,159.9z"/>
			<path class="st7" d="M95.8,157.3l-36.6-21.1c-0.4-0.3-0.8-0.9-0.8-1.5v-5.6c0-0.6,0.4-0.9,0.8-0.6l36.6,21.1
				c0.4,0.3,0.8,0.9,0.8,1.5v5.6C96.6,157.3,96.3,157.6,95.8,157.3z"/>
			<path class="st2" d="M66.9,137.8l-5.5-3.2c-0.4-0.2-0.8-0.9-0.8-1.5l0,0c0-0.6,0.3-0.8,0.8-0.6l5.5,3.2c0.4,0.2,0.8,0.9,0.8,1.5
				l0,0C67.6,137.7,67.3,138,66.9,137.8z"/>
			<path class="st5" d="M71.5,139.4c0,0.6-0.4,0.8-0.9,0.5c-0.5-0.3-0.9-1-0.9-1.6c0-0.6,0.4-0.8,0.9-0.5
				C71.1,138.2,71.5,138.8,71.5,139.4z"/>
			<path class="st5" d="M74.7,141.2c0,0.6-0.4,0.8-0.9,0.5c-0.5-0.3-0.9-1-0.9-1.6s0.4-0.8,0.9-0.5C74.3,140,74.7,140.7,74.7,141.2z
				"/>
			<path class="st2" d="M77.8,143.1c0,0.6-0.4,0.8-0.9,0.5c-0.5-0.3-0.9-1-0.9-1.6s0.4-0.8,0.9-0.5
				C77.4,141.8,77.8,142.5,77.8,143.1z"/>
			<path class="st5" d="M81,144.9c0,0.6-0.4,0.8-0.9,0.5c-0.5-0.3-0.9-1-0.9-1.6s0.4-0.8,0.9-0.5C80.6,143.6,81,144.3,81,144.9z"/>
			<path class="st5" d="M94.3,154.2l-1.8-1.1c-0.3-0.2-0.5-0.6-0.5-1v-1.9c0-0.4,0.2-0.5,0.5-0.4l1.8,1.1c0.3,0.2,0.5,0.6,0.5,1v1.9
				C94.8,154.2,94.6,154.4,94.3,154.2z"/>
		</g>
		<g>
			<path class="st0" d="M97,173l-38.8-22.4c-0.9-0.5-1.6-1.8-1.6-3v-7.4c0-1.2,0.7-1.7,1.6-1.2L97,161.4c0.9,0.5,1.6,1.8,1.6,3v7.4
				C98.5,172.9,97.8,173.5,97,173z"/>
			<path class="st7" d="M95.8,170.4l-36.6-21.1c-0.4-0.3-0.8-0.9-0.8-1.5v-5.6c0-0.6,0.4-0.9,0.8-0.6l36.6,21.1
				c0.4,0.3,0.8,0.9,0.8,1.5v5.6C96.6,170.4,96.3,170.6,95.8,170.4z"/>
			<path class="st2" d="M66.9,150.8l-5.5-3.2c-0.4-0.2-0.8-0.9-0.8-1.5l0,0c0-0.6,0.3-0.8,0.8-0.6l5.5,3.2c0.4,0.2,0.8,0.9,0.8,1.5
				l0,0C67.6,150.8,67.3,151.1,66.9,150.8z"/>
			<path class="st3" d="M72.5,153.2c0,1.1-0.8,1.5-1.7,1c-0.9-0.5-1.7-1.9-1.7-2.9c0-1.1,0.8-1.5,1.7-1
				C71.8,150.8,72.5,152.1,72.5,153.2z"/>
			<path class="st5" d="M79.1,157c0,0.6-0.4,0.8-0.9,0.5c-0.5-0.3-0.9-1-0.9-1.6c0-0.6,0.4-0.8,0.9-0.5
				C78.7,155.7,79.1,156.4,79.1,157z"/>
			<path class="st2" d="M82.2,158.8c0,0.6-0.4,0.8-0.9,0.5c-0.5-0.3-0.9-1-0.9-1.6c0-0.6,0.4-0.8,0.9-0.5
				C81.8,157.6,82.2,158.3,82.2,158.8z"/>
			<path class="st5" d="M85.4,160.7c0,0.6-0.4,0.8-0.9,0.5c-0.5-0.3-0.9-1-0.9-1.6s0.4-0.8,0.9-0.5C85,159.4,85.4,160.1,85.4,160.7z
				"/>
			<path class="st2" d="M94.3,167.3l-1.8-1.1c-0.3-0.2-0.5-0.6-0.5-1v-1.9c0-0.4,0.2-0.5,0.5-0.4l1.8,1.1c0.3,0.2,0.5,0.6,0.5,1v1.9
				C94.8,167.3,94.6,167.4,94.3,167.3z"/>
		</g>
	</g>
	<g>
		<g>
			<g>
				<path class="st4" d="M162.3,222.7L120.8,199c-1.5-0.9-1.3-2.4,0.4-3.4l23.9-13.8c1.8-1,4.4-1.1,5.9-0.2l41.5,23.6
					c1.5,0.9,1.3,2.4-0.4,3.4l-23.9,13.8C166.4,223.4,163.8,223.5,162.3,222.7z"/>
				<path class="st1" d="M196.2,197.3L196.2,197.3v-96.8l-38.5-10.1l-7.1-4.1c-1.6-0.9-4.5-0.8-6.3,0.3l-6.6,3.8l-20.5,0l6.1,93.4
					c0,0.6,0.3,1.2,1.1,1.7l38.4,29c1.6,0.9,4.5,0.8,6.3-0.3l25.6-14.8C195.7,198.8,196.2,198,196.2,197.3z"/>
				<path class="st2" d="M147.7,85.7c-1.2,0-2.4,0.3-3.4,0.9l-6.6,3.8l-20.5,0v97c0,0.6,0.3,1.2,1.1,1.7l44.5,25.4
					c0.8,0.5,1.8,0.7,2.9,0.6l0.5-97.6L147.7,85.7z"/>
				<path class="st0" d="M163.1,214.7c1.4,0.6,3.4,0.6,5.1-0.1v-98.3h-5.1V214.7z"/>
				<path class="st2" d="M162.7,117.5l-44.5-25.4c-1.6-0.9-1.4-2.6,0.5-3.7l25.6-14.8c1.9-1.1,4.7-1.2,6.3-0.3l44.5,25.4
					c1.6,0.9,1.4,2.6-0.5,3.7L169,117.2C167.2,118.3,164.3,118.4,162.7,117.5z"/>
				<path class="st6" d="M194.6,100.7L169,115.4c-1.9,1.1-4.7,1.2-6.3,0.3l-44.5-25.4c-0.4-0.2-0.6-0.5-0.8-0.7
					c-0.6,0.9-0.3,1.9,0.8,2.5l44.5,25.4c1.6,0.9,4.5,0.8,6.3-0.3l25.6-14.8c1.5-0.8,1.9-2,1.3-2.9
					C195.6,99.9,195.2,100.3,194.6,100.7z"/>
				<g>
					<path class="st5" d="M163.9,107.2l-29.6-17.2c-0.8-0.4-0.7-1.2,0.2-1.7l12-6.9c0.9-0.5,2.2-0.6,3-0.1l29.6,17.2
						c0.8,0.4,0.7,1.2-0.2,1.7l-12,6.9C166,107.6,164.7,107.7,163.9,107.2z"/>
					<g>
						<path class="st2" d="M148,90.8l-1.7-1c-0.1-0.1-0.1-0.2,0-0.2l1.7-1c0.1-0.1,0.3-0.1,0.4,0l1.7,1c0.1,0.1,0.1,0.2,0,0.2
							l-1.7,1C148.3,90.9,148.1,90.9,148,90.8z"/>
						<path class="st2" d="M153.7,94.1l-1.7-1c-0.1-0.1-0.1-0.2,0-0.2l1.7-1c0.1-0.1,0.3-0.1,0.4,0l1.7,1c0.1,0.1,0.1,0.2,0,0.2
							l-1.7,1C154,94.2,153.8,94.2,153.7,94.1z"/>
						<path class="st2" d="M159.4,97.4l-1.7-1c-0.1-0.1-0.1-0.2,0-0.2l1.7-1c0.1-0.1,0.3-0.1,0.4,0l1.7,1c0.1,0.1,0.1,0.2,0,0.2
							l-1.7,1C159.7,97.5,159.5,97.5,159.4,97.4z"/>
						<path class="st2" d="M165.2,100.7l-1.7-1c-0.1-0.1-0.1-0.2,0-0.2l1.7-1c0.1-0.1,0.3-0.1,0.4,0l1.7,1c0.1,0.1,0.1,0.2,0,0.2
							l-1.7,1C165.4,100.8,165.3,100.8,165.2,100.7z"/>
					</g>
					<path class="st0" d="M134.3,90.1L134.3,90.1c0.1,0,0.1-0.1,0.2-0.1l12-6.9c0.9-0.5,2.2-0.6,3-0.1l29.6,17.1
						c0.7-0.5,0.7-1.2,0-1.6l-29.6-17.2c-0.8-0.4-2.1-0.4-3,0.1l-12,6.9C133.7,88.8,133.6,89.6,134.3,90.1z"/>
				</g>
			</g>
			<g>
				<path class="st5" d="M174,136.7l16.8-9.6c0.9-0.5,1.7-2,1.7-3.3v-6c0-1.3-0.8-1.8-1.7-1.3l-16.8,9.6c-0.9,0.5-1.7,2-1.7,3.3v6
					C172.3,136.6,173.1,137.2,174,136.7z"/>
				<path class="st3" d="M191.7,116.3c0.3,0.2,0.4,0.7,0.4,1.3v6c0,1.3-0.8,2.7-1.7,3.3l-16.8,9.6c-0.3,0.2-0.6,0.2-0.8,0.2
					c0.3,0.3,0.8,0.3,1.3,0l16.8-9.6c0.9-0.5,1.7-2,1.7-3.3v-6C192.6,116.9,192.2,116.3,191.7,116.3z"/>
				<g>
					<path class="st1" d="M179.1,130.1l1.5-0.9c0.2-0.1,0.4-0.4,0.4-0.7v-1.6c0-0.3-0.2-0.4-0.4-0.3l-1.5,0.9
						c-0.2,0.1-0.4,0.4-0.4,0.7v1.6C178.7,130.1,178.9,130.2,179.1,130.1z"/>
					<path class="st3" d="M184.3,127.1l1.5-0.9c0.2-0.1,0.4-0.4,0.4-0.7v-1.6c0-0.3-0.2-0.4-0.4-0.3l-1.5,0.9
						c-0.2,0.1-0.4,0.4-0.4,0.7v1.6C183.9,127.1,184.1,127.3,184.3,127.1z"/>
				</g>
			</g>
			<g>
				<path class="st5" d="M174,180.2l16.8-9.6c0.9-0.5,1.7-2,1.7-3.3v-6c0-1.3-0.8-1.8-1.7-1.3l-16.8,9.6c-0.9,0.5-1.7,2-1.7,3.3v6
					C172.3,180.1,173.1,180.7,174,180.2z"/>
				<path class="st3" d="M191.7,159.8c0.3,0.2,0.4,0.7,0.4,1.3v6c0,1.3-0.8,2.7-1.7,3.3l-16.8,9.6c-0.3,0.2-0.6,0.2-0.8,0.2
					c0.3,0.3,0.8,0.3,1.3,0l16.8-9.6c0.9-0.5,1.7-2,1.7-3.3v-6C192.6,160.4,192.2,159.8,191.7,159.8z"/>
				<g>
					<path class="st1" d="M179.1,173.6l1.5-0.9c0.2-0.1,0.4-0.4,0.4-0.7v-1.6c0-0.3-0.2-0.4-0.4-0.3l-1.5,0.9
						c-0.2,0.1-0.4,0.4-0.4,0.7v1.6C178.7,173.6,178.9,173.7,179.1,173.6z"/>
					<path class="st3" d="M184.3,170.6l1.5-0.9c0.2-0.1,0.4-0.4,0.4-0.7v-1.6c0-0.3-0.2-0.4-0.4-0.3l-1.5,0.9
						c-0.2,0.1-0.4,0.4-0.4,0.7v1.6C183.9,170.6,184.1,170.8,184.3,170.6z"/>
				</g>
			</g>
			<g>
				<path class="st5" d="M174,201.9l16.8-9.6c0.9-0.5,1.7-2,1.7-3.3v-6c0-1.3-0.8-1.8-1.7-1.3l-16.8,9.6c-0.9,0.5-1.7,2-1.7,3.3v6
					C172.3,201.9,173.1,202.5,174,201.9z"/>
				<path class="st3" d="M191.7,181.5c0.3,0.2,0.4,0.7,0.4,1.3v6c0,1.3-0.8,2.7-1.7,3.3l-16.8,9.6c-0.3,0.2-0.6,0.2-0.8,0.2
					c0.3,0.3,0.8,0.3,1.3,0l16.8-9.6c0.9-0.5,1.7-2,1.7-3.3v-6C192.6,182.1,192.2,181.6,191.7,181.5z"/>
				<g>
					<path class="st1" d="M179.1,195.4l1.5-0.9c0.2-0.1,0.4-0.4,0.4-0.7v-1.6c0-0.3-0.2-0.4-0.4-0.3l-1.5,0.9
						c-0.2,0.1-0.4,0.4-0.4,0.7v1.6C178.7,195.4,178.9,195.5,179.1,195.4z"/>
					<path class="st3" d="M184.3,192.4l1.5-0.9c0.2-0.1,0.4-0.4,0.4-0.7v-1.6c0-0.3-0.2-0.4-0.4-0.3l-1.5,0.9
						c-0.2,0.1-0.4,0.4-0.4,0.7v1.6C183.9,192.4,184.1,192.5,184.3,192.4z"/>
				</g>
			</g>
			<g>
				<path class="st5" d="M174,158.4l16.8-9.6c0.9-0.5,1.7-2,1.7-3.3v-6c0-1.3-0.8-1.8-1.7-1.3l-16.8,9.6c-0.9,0.5-1.7,2-1.7,3.3v6
					C172.3,158.4,173.1,159,174,158.4z"/>
				<path class="st3" d="M191.7,138c0.3,0.2,0.4,0.7,0.4,1.3v6c0,1.3-0.8,2.7-1.7,3.3l-16.8,9.6c-0.3,0.2-0.6,0.2-0.8,0.2
					c0.3,0.3,0.8,0.3,1.3,0l16.8-9.6c0.9-0.5,1.7-2,1.7-3.3v-6C192.6,138.6,192.2,138.1,191.7,138z"/>
				<g>
					<path class="st1" d="M179.1,151.9l1.5-0.9c0.2-0.1,0.4-0.4,0.4-0.7v-1.6c0-0.3-0.2-0.4-0.4-0.3l-1.5,0.9
						c-0.2,0.1-0.4,0.4-0.4,0.7v1.6C178.7,151.9,178.9,152,179.1,151.9z"/>
					<path class="st3" d="M184.3,148.9l1.5-0.9c0.2-0.1,0.4-0.4,0.4-0.7v-1.6c0-0.3-0.2-0.4-0.4-0.3l-1.5,0.9
						c-0.2,0.1-0.4,0.4-0.4,0.7v1.6C183.9,148.9,184.1,149,184.3,148.9z"/>
				</g>
			</g>
		</g>
		<g>
			<path class="st0" d="M159.5,130.5l-38.8-22.4c-0.9-0.5-1.6-1.8-1.6-3v-7.4c0-1.2,0.7-1.7,1.6-1.2l38.8,22.4
				c0.9,0.5,1.6,1.8,1.6,3v7.4C161,130.5,160.3,131,159.5,130.5z"/>
			<path class="st7" d="M158.3,127.9l-36.6-21.1c-0.4-0.3-0.8-0.9-0.8-1.5v-5.6c0-0.6,0.4-0.9,0.8-0.6l36.6,21.1
				c0.4,0.3,0.8,0.9,0.8,1.5v5.6C159.1,127.9,158.8,128.2,158.3,127.9z"/>
			<path class="st2" d="M129.4,108.4l-5.5-3.2c-0.4-0.2-0.8-0.9-0.8-1.5l0,0c0-0.6,0.3-0.8,0.8-0.6l5.5,3.2c0.4,0.2,0.8,0.9,0.8,1.5
				l0,0C130.1,108.3,129.8,108.6,129.4,108.4z"/>
			<path class="st5" d="M134,110c0,0.6-0.4,0.8-0.9,0.5c-0.5-0.3-0.9-1-0.9-1.6c0-0.6,0.4-0.8,0.9-0.5
				C133.6,108.8,134,109.4,134,110z"/>
			<path class="st5" d="M137.2,111.8c0,0.6-0.4,0.8-0.9,0.5c-0.5-0.3-0.9-1-0.9-1.6c0-0.6,0.4-0.8,0.9-0.5
				C136.8,110.6,137.2,111.3,137.2,111.8z"/>
			<path class="st2" d="M140.3,113.7c0,0.6-0.4,0.8-0.9,0.5c-0.5-0.3-0.9-1-0.9-1.6c0-0.6,0.4-0.8,0.9-0.5
				C139.9,112.4,140.3,113.1,140.3,113.7z"/>
			<path class="st5" d="M143.5,115.5c0,0.6-0.4,0.8-0.9,0.5c-0.5-0.3-0.9-1-0.9-1.6c0-0.6,0.4-0.8,0.9-0.5
				C143.1,114.2,143.5,114.9,143.5,115.5z"/>
			<path class="st5" d="M156.8,124.8l-1.8-1.1c-0.3-0.2-0.5-0.6-0.5-1v-1.9c0-0.4,0.2-0.5,0.5-0.4l1.8,1.1c0.3,0.2,0.5,0.6,0.5,1
				v1.9C157.3,124.8,157.1,125,156.8,124.8z"/>
		</g>
		<g>
			<path class="st0" d="M159.5,143.6l-38.8-22.4c-0.9-0.5-1.6-1.8-1.6-3v-7.4c0-1.2,0.7-1.7,1.6-1.2l38.8,22.4
				c0.9,0.5,1.6,1.8,1.6,3v7.4C161,143.5,160.3,144.1,159.5,143.6z"/>
			<path class="st7" d="M158.3,141l-36.6-21.1c-0.4-0.3-0.8-0.9-0.8-1.5v-5.6c0-0.6,0.4-0.9,0.8-0.6l36.6,21.1
				c0.4,0.3,0.8,0.9,0.8,1.5v5.6C159.1,141,158.8,141.2,158.3,141z"/>
			<path class="st2" d="M129.4,121.4l-5.5-3.2c-0.4-0.2-0.8-0.9-0.8-1.5l0,0c0-0.6,0.3-0.8,0.8-0.6l5.5,3.2c0.4,0.2,0.8,0.9,0.8,1.5
				l0,0C130.1,121.4,129.8,121.7,129.4,121.4z"/>
			<path class="st3" d="M134,123.1c0,0.6-0.4,0.8-0.9,0.5c-0.5-0.3-0.9-1-0.9-1.6s0.4-0.8,0.9-0.5C133.6,121.8,134,122.5,134,123.1z
				"/>
			<path class="st5" d="M137.2,124.9c0,0.6-0.4,0.8-0.9,0.5c-0.5-0.3-0.9-1-0.9-1.6c0-0.6,0.4-0.8,0.9-0.5
				C136.8,123.6,137.2,124.3,137.2,124.9z"/>
			<path class="st2" d="M140.3,126.7c0,0.6-0.4,0.8-0.9,0.5c-0.5-0.3-0.9-1-0.9-1.6c0-0.6,0.4-0.8,0.9-0.5
				C139.9,125.5,140.3,126.2,140.3,126.7z"/>
			<path class="st5" d="M143.5,128.5c0,0.6-0.4,0.8-0.9,0.5c-0.5-0.3-0.9-1-0.9-1.6c0-0.6,0.4-0.8,0.9-0.5
				C143.1,127.3,143.5,128,143.5,128.5z"/>
			<path class="st5" d="M156.8,137.9l-1.8-1.1c-0.3-0.2-0.5-0.6-0.5-1v-1.9c0-0.4,0.2-0.5,0.5-0.4l1.8,1.1c0.3,0.2,0.5,0.6,0.5,1
				v1.9C157.3,137.9,157.1,138,156.8,137.9z"/>
		</g>
		<g>
			<path class="st0" d="M159.5,156.6l-38.8-22.4c-0.9-0.5-1.6-1.8-1.6-3v-7.4c0-1.2,0.7-1.7,1.6-1.2l38.8,22.4
				c0.9,0.5,1.6,1.8,1.6,3v7.4C161,156.6,160.3,157.1,159.5,156.6z"/>
			<path class="st7" d="M158.3,154l-36.6-21.1c-0.4-0.3-0.8-0.9-0.8-1.5v-5.6c0-0.6,0.4-0.9,0.8-0.6l36.6,21.1
				c0.4,0.3,0.8,0.9,0.8,1.5v5.6C159.1,154,158.8,154.3,158.3,154z"/>
			<path class="st2" d="M129.4,134.5l-5.5-3.2c-0.4-0.2-0.8-0.9-0.8-1.5l0,0c0-0.6,0.3-0.8,0.8-0.6l5.5,3.2c0.4,0.2,0.8,0.9,0.8,1.5
				l0,0C130.1,134.5,129.8,134.7,129.4,134.5z"/>
			<path class="st3" d="M134,136.1c0,0.6-0.4,0.8-0.9,0.5c-0.5-0.3-0.9-1-0.9-1.6s0.4-0.8,0.9-0.5C133.6,134.9,134,135.6,134,136.1z
				"/>
			<path class="st5" d="M137.2,138c0,0.6-0.4,0.8-0.9,0.5c-0.5-0.3-0.9-1-0.9-1.6s0.4-0.8,0.9-0.5
				C136.8,136.7,137.2,137.4,137.2,138z"/>
			<path class="st2" d="M140.3,139.8c0,0.6-0.4,0.8-0.9,0.5c-0.5-0.3-0.9-1-0.9-1.6c0-0.6,0.4-0.8,0.9-0.5
				C139.9,138.5,140.3,139.2,140.3,139.8z"/>
			<path class="st5" d="M143.5,141.6c0,0.6-0.4,0.8-0.9,0.5c-0.5-0.3-0.9-1-0.9-1.6c0-0.6,0.4-0.8,0.9-0.5
				C143.1,140.3,143.5,141,143.5,141.6z"/>
			<path class="st5" d="M156.8,150.9l-1.8-1.1c-0.3-0.2-0.5-0.6-0.5-1V147c0-0.4,0.2-0.5,0.5-0.4l1.8,1.1c0.3,0.2,0.5,0.6,0.5,1v1.9
				C157.3,150.9,157.1,151.1,156.8,150.9z"/>
		</g>
		<g>
			<path class="st0" d="M159.5,169.7l-38.8-22.4c-0.9-0.5-1.6-1.8-1.6-3v-7.4c0-1.2,0.7-1.7,1.6-1.2l38.8,22.4
				c0.9,0.5,1.6,1.8,1.6,3v7.4C161,169.7,160.3,170.2,159.5,169.7z"/>
			<path class="st7" d="M158.3,167.1L121.7,146c-0.4-0.3-0.8-0.9-0.8-1.5v-5.6c0-0.6,0.4-0.9,0.8-0.6l36.6,21.1
				c0.4,0.3,0.8,0.9,0.8,1.5v5.6C159.1,167.1,158.8,167.3,158.3,167.1z"/>
			<path class="st2" d="M129.4,147.5l-5.5-3.2c-0.4-0.2-0.8-0.9-0.8-1.5l0,0c0-0.6,0.3-0.8,0.8-0.6l5.5,3.2c0.4,0.2,0.8,0.9,0.8,1.5
				l0,0C130.1,147.5,129.8,147.8,129.4,147.5z"/>
			<path class="st5" d="M134,149.2c0,0.6-0.4,0.8-0.9,0.5c-0.5-0.3-0.9-1-0.9-1.6s0.4-0.8,0.9-0.5C133.6,147.9,134,148.6,134,149.2z
				"/>
			<path class="st5" d="M137.2,151c0,0.6-0.4,0.8-0.9,0.5c-0.5-0.3-0.9-1-0.9-1.6s0.4-0.8,0.9-0.5
				C136.8,149.8,137.2,150.4,137.2,151z"/>
			<path class="st2" d="M140.3,152.8c0,0.6-0.4,0.8-0.9,0.5c-0.5-0.3-0.9-1-0.9-1.6s0.4-0.8,0.9-0.5
				C139.9,151.6,140.3,152.3,140.3,152.8z"/>
			<path class="st5" d="M143.5,154.7c0,0.6-0.4,0.8-0.9,0.5c-0.5-0.3-0.9-1-0.9-1.6c0-0.6,0.4-0.8,0.9-0.5
				C143.1,153.4,143.5,154.1,143.5,154.7z"/>
			<path class="st2" d="M156.8,164l-1.8-1.1c-0.3-0.2-0.5-0.6-0.5-1V160c0-0.4,0.2-0.5,0.5-0.4l1.8,1.1c0.3,0.2,0.5,0.6,0.5,1v1.9
				C157.3,164,157.1,164.1,156.8,164z"/>
		</g>
		<g>
			<path class="st0" d="M159.5,182.7l-38.8-22.4c-0.9-0.5-1.6-1.8-1.6-3v-7.4c0-1.2,0.7-1.7,1.6-1.2l38.8,22.4
				c0.9,0.5,1.6,1.8,1.6,3v7.4C161,182.7,160.3,183.2,159.5,182.7z"/>
			<path class="st7" d="M158.3,180.1L121.7,159c-0.4-0.3-0.8-0.9-0.8-1.5v-5.6c0-0.6,0.4-0.9,0.8-0.6l36.6,21.1
				c0.4,0.3,0.8,0.9,0.8,1.5v5.6C159.1,180.1,158.8,180.4,158.3,180.1z"/>
			<path class="st2" d="M129.4,160.6l-5.5-3.2c-0.4-0.2-0.8-0.9-0.8-1.5l0,0c0-0.6,0.3-0.8,0.8-0.6l5.5,3.2c0.4,0.2,0.8,0.9,0.8,1.5
				l0,0C130.1,160.6,129.8,160.8,129.4,160.6z"/>
			<path class="st5" d="M134,162.3c0,0.6-0.4,0.8-0.9,0.5c-0.5-0.3-0.9-1-0.9-1.6s0.4-0.8,0.9-0.5C133.6,161,134,161.7,134,162.3z"
				/>
			<path class="st3" d="M137.2,164.1c0,0.6-0.4,0.8-0.9,0.5c-0.5-0.3-0.9-1-0.9-1.6c0-0.6,0.4-0.8,0.9-0.5
				C136.8,162.8,137.2,163.5,137.2,164.1z"/>
			<path class="st2" d="M140.3,165.9c0,0.6-0.4,0.8-0.9,0.5c-0.5-0.3-0.9-1-0.9-1.6s0.4-0.8,0.9-0.5
				C139.9,164.6,140.3,165.3,140.3,165.9z"/>
			<path class="st3" d="M143.5,167.7c0,0.6-0.4,0.8-0.9,0.5c-0.5-0.3-0.9-1-0.9-1.6s0.4-0.8,0.9-0.5
				C143.1,166.5,143.5,167.2,143.5,167.7z"/>
			<path class="st2" d="M156.8,177L155,176c-0.3-0.2-0.5-0.6-0.5-1v-1.9c0-0.4,0.2-0.5,0.5-0.4l1.8,1.1c0.3,0.2,0.5,0.6,0.5,1v1.9
				C157.3,177,157.1,177.2,156.8,177z"/>
		</g>
		<g>
			<path class="st0" d="M159.5,195.8l-38.8-22.4c-0.9-0.5-1.6-1.8-1.6-3V163c0-1.2,0.7-1.7,1.6-1.2l38.8,22.4c0.9,0.5,1.6,1.8,1.6,3
				v7.4C161,195.8,160.3,196.3,159.5,195.8z"/>
			<path class="st7" d="M158.3,193.2l-36.6-21.1c-0.4-0.3-0.8-0.9-0.8-1.5V165c0-0.6,0.4-0.9,0.8-0.6l36.6,21.1
				c0.4,0.3,0.8,0.9,0.8,1.5v5.6C159.1,193.2,158.8,193.5,158.3,193.2z"/>
			<path class="st2" d="M129.4,173.7l-5.5-3.2c-0.4-0.2-0.8-0.9-0.8-1.5l0,0c0-0.6,0.3-0.8,0.8-0.6l5.5,3.2c0.4,0.2,0.8,0.9,0.8,1.5
				v0C130.1,173.6,129.8,173.9,129.4,173.7z"/>
			<path class="st5" d="M134,175.3c0,0.6-0.4,0.8-0.9,0.5c-0.5-0.3-0.9-1-0.9-1.6c0-0.6,0.4-0.8,0.9-0.5
				C133.6,174,134,174.7,134,175.3z"/>
			<path class="st5" d="M137.2,177.1c0,0.6-0.4,0.8-0.9,0.5c-0.5-0.3-0.9-1-0.9-1.6s0.4-0.8,0.9-0.5
				C136.8,175.9,137.2,176.6,137.2,177.1z"/>
			<path class="st2" d="M140.3,179c0,0.6-0.4,0.8-0.9,0.5c-0.5-0.3-0.9-1-0.9-1.6s0.4-0.8,0.9-0.5
				C139.9,177.7,140.3,178.4,140.3,179z"/>
			<path class="st5" d="M143.5,180.8c0,0.6-0.4,0.8-0.9,0.5c-0.5-0.3-0.9-1-0.9-1.6s0.4-0.8,0.9-0.5
				C143.1,179.5,143.5,180.2,143.5,180.8z"/>
			<path class="st5" d="M156.8,190.1L155,189c-0.3-0.2-0.5-0.6-0.5-1v-1.9c0-0.4,0.2-0.5,0.5-0.4l1.8,1.1c0.3,0.2,0.5,0.6,0.5,1v1.9
				C157.3,190.1,157.1,190.3,156.8,190.1z"/>
		</g>
		<g>
			<path class="st0" d="M159.5,208.9l-38.8-22.4c-0.9-0.5-1.6-1.8-1.6-3V176c0-1.2,0.7-1.7,1.6-1.2l38.8,22.4c0.9,0.5,1.6,1.8,1.6,3
				v7.4C161,208.8,160.3,209.4,159.5,208.9z"/>
			<path class="st7" d="M158.3,206.3l-36.6-21.1c-0.4-0.3-0.8-0.9-0.8-1.5V178c0-0.6,0.4-0.9,0.8-0.6l36.6,21.1
				c0.4,0.3,0.8,0.9,0.8,1.5v5.6C159.1,206.2,158.8,206.5,158.3,206.3z"/>
			<path class="st2" d="M129.4,186.7l-5.5-3.2c-0.4-0.2-0.8-0.9-0.8-1.5l0,0c0-0.6,0.3-0.8,0.8-0.6l5.5,3.2c0.4,0.2,0.8,0.9,0.8,1.5
				l0,0C130.1,186.7,129.8,187,129.4,186.7z"/>
			<path class="st3" d="M135,189.1c0,1.1-0.8,1.5-1.7,1c-0.9-0.5-1.7-1.9-1.7-2.9c0-1.1,0.8-1.5,1.7-1
				C134.3,186.7,135,188,135,189.1z"/>
			<path class="st5" d="M141.6,192.9c0,0.6-0.4,0.8-0.9,0.5c-0.5-0.3-0.9-1-0.9-1.6c0-0.6,0.4-0.8,0.9-0.5
				C141.2,191.6,141.6,192.3,141.6,192.9z"/>
			<path class="st2" d="M144.7,194.7c0,0.6-0.4,0.8-0.9,0.5c-0.5-0.3-0.9-1-0.9-1.6c0-0.6,0.4-0.8,0.9-0.5
				C144.3,193.5,144.7,194.2,144.7,194.7z"/>
			<path class="st5" d="M147.9,196.6c0,0.6-0.4,0.8-0.9,0.5c-0.5-0.3-0.9-1-0.9-1.6c0-0.6,0.4-0.8,0.9-0.5
				C147.5,195.3,147.9,196,147.9,196.6z"/>
			<path class="st2" d="M156.8,203.2l-1.8-1.1c-0.3-0.2-0.5-0.6-0.5-1v-1.9c0-0.4,0.2-0.5,0.5-0.4l1.8,1.1c0.3,0.2,0.5,0.6,0.5,1
				v1.9C157.3,203.2,157.1,203.3,156.8,203.2z"/>
		</g>
	</g>
	<g>
		<g>
			<path class="st2" d="M204.1,94.1l-1.7-1v-2.4c0-2.6-1.8-5.7-4.1-7l-12.7-7.3c-2.2-1.3-4.1-0.2-4.1,2.3v26l-1.7-24.5v-2.4
				c0-3.6,2.6-5.1,5.7-3.3l12.7,7.3c3.2,1.8,5.7,6.3,5.7,9.9V94.1z"/>
		</g>
		<path class="st2" d="M198.3,97.4l5.7-3.3l-1.2-4l-1.6-4c0,0-2.8-3.1-3-3.1c-0.2-0.1-7.7-4.3-7.7-4.3l-6.2-4.5l-3,0.1l-5.5,3.2
			l4,1.6c0,0,2.3,1.1,2.8,1.3c0.5,0.1,2.7,2.2,2.8,2.3c0,0,2.7,1.1,2.7,1.1l0.6-0.1l4.9,3.4l1.6,0.7L196,89l1.3,3.6L198.3,97.4z"/>
		<path class="st1" d="M181.6,104.7l-5.7,3.3c0,0-0.4-27.2-0.4-27.3c0,0,1.3-1.8,1.3-1.8l3.1-0.6l2.5,1.9l-0.8-0.3l-0.3,0.2l0.4,0.6
			V104.7z"/>
		<g>
			<path class="st0" d="M198.3,97.4l-1.7-1V94c0-2.6-1.8-5.7-4.1-7l-12.7-7.3c-2.2-1.3-4.1-0.2-4.1,2.3v26l-1.7-1V81
				c0-3.6,2.6-5.1,5.7-3.3l12.7,7.3c3.2,1.8,5.7,6.3,5.7,9.9V97.4z"/>
		</g>
	</g>
	<g>
		<g>
			<g>
				<path class="st4" d="M223.1,251.7L194,235.1c-1.1-0.6-0.9-1.7,0.3-2.4l16.7-9.7c1.2-0.7,3.1-0.8,4.1-0.2l29.1,16.6
					c1.1,0.6,0.9,1.7-0.3,2.4l-16.7,9.7C226,252.2,224.2,252.3,223.1,251.7z"/>
				<path class="st1" d="M258.7,209.6L258.7,209.6v-96.8l-38.5-10.1l-7.1-4.1c-1.6-0.9-4.5-0.8-6.3,0.3l-6.6,3.8l-20.5,0l6.1,93.4
					c0,0.6,0.3,1.2,1.1,1.7l38.4,29c1.6,0.9,4.5,0.8,6.3-0.3l25.6-14.8C258.2,211.1,258.7,210.3,258.7,209.6z"/>
				<path class="st2" d="M210.2,98c-1.2,0-2.4,0.3-3.4,0.9l-6.6,3.8l-20.5,0v97c0,0.6,0.3,1.2,1.1,1.7l44.5,25.4
					c0.8,0.5,1.8,0.7,2.9,0.6l0.5-97.6L210.2,98z"/>
				<path class="st0" d="M225.6,227c1.4,0.6,3.4,0.6,5.1-0.1v-98.3h-5.1V227z"/>
				<path class="st2" d="M225.2,129.8l-44.5-25.4c-1.6-0.9-1.4-2.6,0.5-3.7L206.8,86c1.9-1.1,4.7-1.2,6.3-0.3l44.5,25.4
					c1.6,0.9,1.4,2.6-0.5,3.7l-25.6,14.8C229.7,130.6,226.8,130.7,225.2,129.8z"/>
				<path class="st6" d="M257.1,112.9l-25.6,14.8c-1.9,1.1-4.7,1.2-6.3,0.3l-44.5-25.4c-0.4-0.2-0.6-0.5-0.8-0.7
					c-0.6,0.9-0.3,1.9,0.8,2.5l44.5,25.4c1.6,0.9,4.5,0.8,6.3-0.3l25.6-14.8c1.5-0.8,1.9-2,1.3-2.9
					C258.1,112.2,257.7,112.6,257.1,112.9z"/>
				<g>
					<path class="st5" d="M226.4,119.5l-29.6-17.2c-0.8-0.4-0.7-1.2,0.2-1.7l12-6.9c0.9-0.5,2.2-0.6,3-0.1l29.6,17.2
						c0.8,0.4,0.7,1.2-0.2,1.7l-12,6.9C228.5,119.9,227.2,119.9,226.4,119.5z"/>
					<g>
						<path class="st2" d="M210.5,103.1l-1.7-1c-0.1-0.1-0.1-0.2,0-0.2l1.7-1c0.1-0.1,0.3-0.1,0.4,0l1.7,1c0.1,0.1,0.1,0.2,0,0.2
							l-1.7,1C210.7,103.2,210.6,103.2,210.5,103.1z"/>
						<path class="st2" d="M216.2,106.4l-1.7-1c-0.1-0.1-0.1-0.2,0-0.2l1.7-1c0.1-0.1,0.3-0.1,0.4,0l1.7,1c0.1,0.1,0.1,0.2,0,0.2
							l-1.7,1C216.5,106.5,216.3,106.5,216.2,106.4z"/>
						<path class="st2" d="M221.9,109.7l-1.7-1c-0.1-0.1-0.1-0.2,0-0.2l1.7-1c0.1-0.1,0.3-0.1,0.4,0l1.7,1c0.1,0.1,0.1,0.2,0,0.2
							l-1.7,1C222.2,109.8,222,109.8,221.9,109.7z"/>
						<path class="st2" d="M227.7,113l-1.7-1c-0.1-0.1-0.1-0.2,0-0.2l1.7-1c0.1-0.1,0.3-0.1,0.4,0l1.7,1c0.1,0.1,0.1,0.2,0,0.2
							l-1.7,1C227.9,113,227.8,113.1,227.7,113z"/>
					</g>
					<path class="st0" d="M196.8,102.3L196.8,102.3c0.1,0,0.1-0.1,0.2-0.1l12-6.9c0.9-0.5,2.2-0.6,3-0.1l29.6,17.1
						c0.7-0.5,0.7-1.2,0-1.6L212,93.6c-0.8-0.4-2.1-0.4-3,0.1l-12,6.9C196.2,101.1,196.1,101.9,196.8,102.3z"/>
				</g>
			</g>
			<g>
				<path class="st5" d="M236.5,148.9l16.8-9.6c0.9-0.5,1.7-2,1.7-3.3v-6c0-1.3-0.8-1.8-1.7-1.3l-16.8,9.6c-0.9,0.5-1.7,2-1.7,3.3v6
					C234.8,148.9,235.6,149.5,236.5,148.9z"/>
				<path class="st3" d="M254.2,128.5c0.3,0.2,0.4,0.7,0.4,1.3v6c0,1.3-0.8,2.7-1.7,3.3l-16.8,9.6c-0.3,0.2-0.6,0.2-0.8,0.2
					c0.3,0.3,0.8,0.3,1.3,0l16.8-9.6c0.9-0.5,1.7-2,1.7-3.3v-6C255.1,129.2,254.7,128.6,254.2,128.5z"/>
				<g>
					<path class="st1" d="M241.6,142.4l1.5-0.9c0.2-0.1,0.4-0.4,0.4-0.7v-1.6c0-0.3-0.2-0.4-0.4-0.3l-1.5,0.9
						c-0.2,0.1-0.4,0.4-0.4,0.7v1.6C241.2,142.4,241.4,142.5,241.6,142.4z"/>
					<path class="st3" d="M246.8,139.4l1.5-0.9c0.2-0.1,0.4-0.4,0.4-0.7v-1.6c0-0.3-0.2-0.4-0.4-0.3l-1.5,0.9
						c-0.2,0.1-0.4,0.4-0.4,0.7v1.6C246.4,139.4,246.5,139.5,246.8,139.4z"/>
				</g>
			</g>
			<g>
				<path class="st5" d="M236.5,192.5l16.8-9.6c0.9-0.5,1.7-2,1.7-3.3v-6c0-1.3-0.8-1.8-1.7-1.3l-16.8,9.6c-0.9,0.5-1.7,2-1.7,3.3v6
					C234.8,192.4,235.6,193,236.5,192.5z"/>
				<path class="st3" d="M254.2,172c0.3,0.2,0.4,0.7,0.4,1.3v6c0,1.3-0.8,2.7-1.7,3.3l-16.8,9.6c-0.3,0.2-0.6,0.2-0.8,0.2
					c0.3,0.3,0.8,0.3,1.3,0l16.8-9.6c0.9-0.5,1.7-2,1.7-3.3v-6C255.1,172.7,254.7,172.1,254.2,172z"/>
				<g>
					<path class="st1" d="M241.6,185.9l1.5-0.9c0.2-0.1,0.4-0.4,0.4-0.7v-1.6c0-0.3-0.2-0.4-0.4-0.3l-1.5,0.9
						c-0.2,0.1-0.4,0.4-0.4,0.7v1.6C241.2,185.9,241.4,186,241.6,185.9z"/>
					<path class="st3" d="M246.8,182.9l1.5-0.9c0.2-0.1,0.4-0.4,0.4-0.7v-1.6c0-0.3-0.2-0.4-0.4-0.3l-1.5,0.9
						c-0.2,0.1-0.4,0.4-0.4,0.7v1.6C246.4,182.9,246.5,183.1,246.8,182.9z"/>
				</g>
			</g>
			<g>
				<path class="st5" d="M236.5,214.2l16.8-9.6c0.9-0.5,1.7-2,1.7-3.3v-6c0-1.3-0.8-1.8-1.7-1.3l-16.8,9.6c-0.9,0.5-1.7,2-1.7,3.3v6
					C234.8,214.2,235.6,214.7,236.5,214.2z"/>
				<path class="st3" d="M254.2,193.8c0.3,0.2,0.4,0.7,0.4,1.3v6c0,1.3-0.8,2.7-1.7,3.3l-16.8,9.6c-0.3,0.2-0.6,0.2-0.8,0.2
					c0.3,0.3,0.8,0.3,1.3,0l16.8-9.6c0.9-0.5,1.7-2,1.7-3.3v-6C255.1,194.4,254.7,193.9,254.2,193.8z"/>
				<g>
					<path class="st1" d="M241.6,207.7l1.5-0.9c0.2-0.1,0.4-0.4,0.4-0.7v-1.6c0-0.3-0.2-0.4-0.4-0.3l-1.5,0.9
						c-0.2,0.1-0.4,0.4-0.4,0.7v1.6C241.2,207.7,241.4,207.8,241.6,207.7z"/>
					<path class="st3" d="M246.8,204.7l1.5-0.9c0.2-0.1,0.4-0.4,0.4-0.7v-1.6c0-0.3-0.2-0.4-0.4-0.3l-1.5,0.9
						c-0.2,0.1-0.4,0.4-0.4,0.7v1.6C246.4,204.7,246.5,204.8,246.8,204.7z"/>
					<path class="st3" d="M245.6,215.8l1.5-0.9c0.2-0.1,0.4-0.4,0.4-0.7v-1.6c0-0.3-0.2-0.4-0.4-0.3l-1.5,0.9
						c-0.2,0.1-0.4,0.4-0.4,0.7v1.6C245.2,215.8,245.4,215.9,245.6,215.8z"/>
				</g>
			</g>
			<g>
				<path class="st5" d="M236.5,170.7l16.8-9.6c0.9-0.5,1.7-2,1.7-3.3v-6c0-1.3-0.8-1.8-1.7-1.3l-16.8,9.6c-0.9,0.5-1.7,2-1.7,3.3v6
					C234.8,170.7,235.6,171.2,236.5,170.7z"/>
				<path class="st3" d="M254.2,150.3c0.3,0.2,0.4,0.7,0.4,1.3v6c0,1.3-0.8,2.7-1.7,3.3l-16.8,9.6c-0.3,0.2-0.6,0.2-0.8,0.2
					c0.3,0.3,0.8,0.3,1.3,0l16.8-9.6c0.9-0.5,1.7-2,1.7-3.3v-6C255.1,150.9,254.7,150.4,254.2,150.3z"/>
				<g>
					<path class="st1" d="M241.6,164.2l1.5-0.9c0.2-0.1,0.4-0.4,0.4-0.7v-1.6c0-0.3-0.2-0.4-0.4-0.3l-1.5,0.9
						c-0.2,0.1-0.4,0.4-0.4,0.7v1.6C241.2,164.2,241.4,164.3,241.6,164.2z"/>
					<path class="st3" d="M246.8,161.2l1.5-0.9c0.2-0.1,0.4-0.4,0.4-0.7v-1.6c0-0.3-0.2-0.4-0.4-0.3l-1.5,0.9
						c-0.2,0.1-0.4,0.4-0.4,0.7v1.6C246.4,161.2,246.5,161.3,246.8,161.2z"/>
				</g>
			</g>
		</g>
		<g>
			<path class="st0" d="M221.9,142.8l-38.8-22.4c-0.9-0.5-1.6-1.8-1.6-3V110c0-1.2,0.7-1.7,1.6-1.2l38.8,22.4c0.9,0.5,1.6,1.8,1.6,3
				v7.4C223.5,142.8,222.8,143.3,221.9,142.8z"/>
			<path class="st7" d="M220.8,140.2l-36.6-21.1c-0.4-0.3-0.8-0.9-0.8-1.5V112c0-0.6,0.4-0.9,0.8-0.6l36.6,21.1
				c0.4,0.3,0.8,0.9,0.8,1.5v5.6C221.6,140.2,221.3,140.4,220.8,140.2z"/>
			<path class="st2" d="M191.9,120.6l-5.5-3.2c-0.4-0.2-0.8-0.9-0.8-1.5l0,0c0-0.6,0.3-0.8,0.8-0.6l5.5,3.2c0.4,0.2,0.8,0.9,0.8,1.5
				l0,0C192.6,120.6,192.3,120.9,191.9,120.6z"/>
			<path class="st5" d="M196.5,122.3c0,0.6-0.4,0.8-0.9,0.5c-0.5-0.3-0.9-1-0.9-1.6c0-0.6,0.4-0.8,0.9-0.5
				C196.1,121,196.5,121.7,196.5,122.3z"/>
			<path class="st5" d="M199.7,124.1c0,0.6-0.4,0.8-0.9,0.5c-0.5-0.3-0.9-1-0.9-1.6s0.4-0.8,0.9-0.5
				C199.3,122.9,199.7,123.6,199.7,124.1z"/>
			<path class="st2" d="M202.8,125.9c0,0.6-0.4,0.8-0.9,0.5c-0.5-0.3-0.9-1-0.9-1.6s0.4-0.8,0.9-0.5
				C202.4,124.7,202.8,125.4,202.8,125.9z"/>
			<path class="st5" d="M206,127.8c0,0.6-0.4,0.8-0.9,0.5c-0.5-0.3-0.9-1-0.9-1.6s0.4-0.8,0.9-0.5C205.6,126.5,206,127.2,206,127.8z
				"/>
			<path class="st5" d="M219.3,137.1l-1.8-1.1c-0.3-0.2-0.5-0.6-0.5-1v-1.9c0-0.4,0.2-0.5,0.5-0.4l1.8,1.1c0.3,0.2,0.5,0.6,0.5,1
				v1.9C219.8,137.1,219.6,137.2,219.3,137.1z"/>
		</g>
		<g>
			<path class="st0" d="M221.9,155.8l-38.8-22.4c-0.9-0.5-1.6-1.8-1.6-3V123c0-1.2,0.7-1.7,1.6-1.2l38.8,22.4c0.9,0.5,1.6,1.8,1.6,3
				v7.4C223.5,155.8,222.8,156.3,221.9,155.8z"/>
			<path class="st7" d="M220.8,153.3l-36.6-21.1c-0.4-0.3-0.8-0.9-0.8-1.5V125c0-0.6,0.4-0.9,0.8-0.6l36.6,21.1
				c0.4,0.3,0.8,0.9,0.8,1.5v5.6C221.6,153.2,221.3,153.5,220.8,153.3z"/>
			<path class="st2" d="M191.9,133.7l-5.5-3.2c-0.4-0.2-0.8-0.9-0.8-1.5l0,0c0-0.6,0.3-0.8,0.8-0.6l5.5,3.2c0.4,0.2,0.8,0.9,0.8,1.5
				l0,0C192.6,133.7,192.3,134,191.9,133.7z"/>
			<path class="st3" d="M196.5,135.4c0,0.6-0.4,0.8-0.9,0.5c-0.5-0.3-0.9-1-0.9-1.6c0-0.6,0.4-0.8,0.9-0.5
				C196.1,134.1,196.5,134.8,196.5,135.4z"/>
			<path class="st5" d="M199.7,137.2c0,0.6-0.4,0.8-0.9,0.5c-0.5-0.3-0.9-1-0.9-1.6c0-0.6,0.4-0.8,0.9-0.5
				C199.3,135.9,199.7,136.6,199.7,137.2z"/>
			<path class="st2" d="M202.8,139c0,0.6-0.4,0.8-0.9,0.5c-0.5-0.3-0.9-1-0.9-1.6s0.4-0.8,0.9-0.5
				C202.4,137.7,202.8,138.4,202.8,139z"/>
			<path class="st5" d="M206,140.8c0,0.6-0.4,0.8-0.9,0.5c-0.5-0.3-0.9-1-0.9-1.6s0.4-0.8,0.9-0.5C205.6,139.6,206,140.3,206,140.8z
				"/>
			<path class="st5" d="M219.3,150.1l-1.8-1.1c-0.3-0.2-0.5-0.6-0.5-1v-1.9c0-0.4,0.2-0.5,0.5-0.4l1.8,1.1c0.3,0.2,0.5,0.6,0.5,1
				v1.9C219.8,150.1,219.6,150.3,219.3,150.1z"/>
		</g>
		<g>
			<path class="st0" d="M221.9,168.9l-38.8-22.4c-0.9-0.5-1.6-1.8-1.6-3v-7.4c0-1.2,0.7-1.7,1.6-1.2l38.8,22.4
				c0.9,0.5,1.6,1.8,1.6,3v7.4C223.5,168.9,222.8,169.4,221.9,168.9z"/>
			<path class="st7" d="M220.8,166.3l-36.6-21.1c-0.4-0.3-0.8-0.9-0.8-1.5v-5.6c0-0.6,0.4-0.9,0.8-0.6l36.6,21.1
				c0.4,0.3,0.8,0.9,0.8,1.5v5.6C221.6,166.3,221.3,166.6,220.8,166.3z"/>
			<path class="st2" d="M191.9,146.8l-5.5-3.2c-0.4-0.2-0.8-0.9-0.8-1.5l0,0c0-0.6,0.3-0.8,0.8-0.6l5.5,3.2c0.4,0.2,0.8,0.9,0.8,1.5
				l0,0C192.6,146.7,192.3,147,191.9,146.8z"/>
			<path class="st3" d="M196.5,148.4c0,0.6-0.4,0.8-0.9,0.5c-0.5-0.3-0.9-1-0.9-1.6c0-0.6,0.4-0.8,0.9-0.5
				C196.1,147.2,196.5,147.8,196.5,148.4z"/>
			<path class="st5" d="M199.7,150.2c0,0.6-0.4,0.8-0.9,0.5c-0.5-0.3-0.9-1-0.9-1.6c0-0.6,0.4-0.8,0.9-0.5
				C199.3,149,199.7,149.7,199.7,150.2z"/>
			<path class="st2" d="M202.8,152.1c0,0.6-0.4,0.8-0.9,0.5c-0.5-0.3-0.9-1-0.9-1.6c0-0.6,0.4-0.8,0.9-0.5
				C202.4,150.8,202.8,151.5,202.8,152.1z"/>
			<path class="st5" d="M206,153.9c0,0.6-0.4,0.8-0.9,0.5c-0.5-0.3-0.9-1-0.9-1.6c0-0.6,0.4-0.8,0.9-0.5
				C205.6,152.6,206,153.3,206,153.9z"/>
			<path class="st5" d="M219.3,163.2l-1.8-1.1c-0.3-0.2-0.5-0.6-0.5-1v-1.9c0-0.4,0.2-0.5,0.5-0.4l1.8,1.1c0.3,0.2,0.5,0.6,0.5,1
				v1.9C219.8,163.2,219.6,163.4,219.3,163.2z"/>
		</g>
		<g>
			<path class="st0" d="M221.9,182l-38.8-22.4c-0.9-0.5-1.6-1.8-1.6-3v-7.4c0-1.2,0.7-1.7,1.6-1.2l38.8,22.4c0.9,0.5,1.6,1.8,1.6,3
				v7.4C223.5,181.9,222.8,182.5,221.9,182z"/>
			<path class="st7" d="M220.8,179.4l-36.6-21.1c-0.4-0.3-0.8-0.9-0.8-1.5v-5.6c0-0.6,0.4-0.9,0.8-0.6l36.6,21.1
				c0.4,0.3,0.8,0.9,0.8,1.5v5.6C221.6,179.4,221.3,179.6,220.8,179.4z"/>
			<path class="st2" d="M191.9,159.8l-5.5-3.2c-0.4-0.2-0.8-0.9-0.8-1.5l0,0c0-0.6,0.3-0.8,0.8-0.6l5.5,3.2c0.4,0.2,0.8,0.9,0.8,1.5
				l0,0C192.6,159.8,192.3,160.1,191.9,159.8z"/>
			<path class="st5" d="M196.5,161.5c0,0.6-0.4,0.8-0.9,0.5c-0.5-0.3-0.9-1-0.9-1.6s0.4-0.8,0.9-0.5
				C196.1,160.2,196.5,160.9,196.5,161.5z"/>
			<path class="st5" d="M199.7,163.3c0,0.6-0.4,0.8-0.9,0.5c-0.5-0.3-0.9-1-0.9-1.6c0-0.6,0.4-0.8,0.9-0.5
				C199.3,162,199.7,162.7,199.7,163.3z"/>
			<path class="st2" d="M202.8,165.1c0,0.6-0.4,0.8-0.9,0.5c-0.5-0.3-0.9-1-0.9-1.6c0-0.6,0.4-0.8,0.9-0.5
				C202.4,163.9,202.8,164.6,202.8,165.1z"/>
			<path class="st5" d="M206,166.9c0,0.6-0.4,0.8-0.9,0.5c-0.5-0.3-0.9-1-0.9-1.6c0-0.6,0.4-0.8,0.9-0.5
				C205.6,165.7,206,166.4,206,166.9z"/>
			<path class="st2" d="M219.3,176.3l-1.8-1.1c-0.3-0.2-0.5-0.6-0.5-1v-1.9c0-0.4,0.2-0.5,0.5-0.4l1.8,1.1c0.3,0.2,0.5,0.6,0.5,1
				v1.9C219.8,176.3,219.6,176.4,219.3,176.3z"/>
		</g>
		<g>
			<path class="st0" d="M221.9,195l-38.8-22.4c-0.9-0.5-1.6-1.8-1.6-3v-7.4c0-1.2,0.7-1.7,1.6-1.2l38.8,22.4c0.9,0.5,1.6,1.8,1.6,3
				v7.4C223.5,195,222.8,195.5,221.9,195z"/>
			<path class="st7" d="M220.8,192.4l-36.6-21.1c-0.4-0.3-0.8-0.9-0.8-1.5v-5.6c0-0.6,0.4-0.9,0.8-0.6l36.6,21.1
				c0.4,0.3,0.8,0.9,0.8,1.5v5.6C221.6,192.4,221.3,192.7,220.8,192.4z"/>
			<path class="st2" d="M191.9,172.9l-5.5-3.2c-0.4-0.2-0.8-0.9-0.8-1.5l0,0c0-0.6,0.3-0.8,0.8-0.6l5.5,3.2c0.4,0.2,0.8,0.9,0.8,1.5
				l0,0C192.6,172.9,192.3,173.1,191.9,172.9z"/>
			<path class="st5" d="M196.5,174.5c0,0.6-0.4,0.8-0.9,0.5c-0.5-0.3-0.9-1-0.9-1.6s0.4-0.8,0.9-0.5
				C196.1,173.3,196.5,174,196.5,174.5z"/>
			<path class="st3" d="M199.7,176.4c0,0.6-0.4,0.8-0.9,0.5c-0.5-0.3-0.9-1-0.9-1.6s0.4-0.8,0.9-0.5
				C199.3,175.1,199.7,175.8,199.7,176.4z"/>
			<path class="st2" d="M202.8,178.2c0,0.6-0.4,0.8-0.9,0.5c-0.5-0.3-0.9-1-0.9-1.6c0-0.6,0.4-0.8,0.9-0.5
				C202.4,176.9,202.8,177.6,202.8,178.2z"/>
			<path class="st3" d="M206,180c0,0.6-0.4,0.8-0.9,0.5c-0.5-0.3-0.9-1-0.9-1.6c0-0.6,0.4-0.8,0.9-0.5
				C205.6,178.7,206,179.4,206,180z"/>
			<path class="st2" d="M219.3,189.3l-1.8-1.1c-0.3-0.2-0.5-0.6-0.5-1v-1.9c0-0.4,0.2-0.5,0.5-0.4l1.8,1.1c0.3,0.2,0.5,0.6,0.5,1
				v1.9C219.8,189.3,219.6,189.5,219.3,189.3z"/>
		</g>
		<g>
			<path class="st0" d="M221.9,208.1l-38.8-22.4c-0.9-0.5-1.6-1.8-1.6-3v-7.4c0-1.2,0.7-1.7,1.6-1.2l38.8,22.4
				c0.9,0.5,1.6,1.8,1.6,3v7.4C223.5,208.1,222.8,208.6,221.9,208.1z"/>
			<path class="st7" d="M220.8,205.5l-36.6-21.1c-0.4-0.3-0.8-0.9-0.8-1.5v-5.6c0-0.6,0.4-0.9,0.8-0.6l36.6,21.1
				c0.4,0.3,0.8,0.9,0.8,1.5v5.6C221.6,205.5,221.3,205.7,220.8,205.5z"/>
			<path class="st2" d="M191.9,185.9l-5.5-3.2c-0.4-0.2-0.8-0.9-0.8-1.5l0,0c0-0.6,0.3-0.8,0.8-0.6l5.5,3.2c0.4,0.2,0.8,0.9,0.8,1.5
				l0,0C192.6,185.9,192.3,186.2,191.9,185.9z"/>
			<path class="st5" d="M196.5,187.6c0,0.6-0.4,0.8-0.9,0.5c-0.5-0.3-0.9-1-0.9-1.6s0.4-0.8,0.9-0.5
				C196.1,186.3,196.5,187,196.5,187.6z"/>
			<path class="st5" d="M199.7,189.4c0,0.6-0.4,0.8-0.9,0.5c-0.5-0.3-0.9-1-0.9-1.6s0.4-0.8,0.9-0.5
				C199.3,188.2,199.7,188.8,199.7,189.4z"/>
			<path class="st2" d="M202.8,191.2c0,0.6-0.4,0.8-0.9,0.5c-0.5-0.3-0.9-1-0.9-1.6c0-0.6,0.4-0.8,0.9-0.5
				C202.4,190,202.8,190.7,202.8,191.2z"/>
			<path class="st5" d="M206,193.1c0,0.6-0.4,0.8-0.9,0.5c-0.5-0.3-0.9-1-0.9-1.6c0-0.6,0.4-0.8,0.9-0.5
				C205.6,191.8,206,192.5,206,193.1z"/>
			<path class="st5" d="M219.3,202.4l-1.8-1.1c-0.3-0.2-0.5-0.6-0.5-1v-1.9c0-0.4,0.2-0.5,0.5-0.4l1.8,1.1c0.3,0.2,0.5,0.6,0.5,1
				v1.9C219.8,202.4,219.6,202.5,219.3,202.4z"/>
		</g>
		<g>
			<path class="st0" d="M221.9,221.1l-38.8-22.4c-0.9-0.5-1.6-1.8-1.6-3v-7.4c0-1.2,0.7-1.7,1.6-1.2l38.8,22.4
				c0.9,0.5,1.6,1.8,1.6,3v7.4C223.5,221.1,222.8,221.6,221.9,221.1z"/>
			<path class="st7" d="M220.8,218.5l-36.6-21.1c-0.4-0.3-0.8-0.9-0.8-1.5v-5.6c0-0.6,0.4-0.9,0.8-0.6l36.6,21.1
				c0.4,0.3,0.8,0.9,0.8,1.5v5.6C221.6,218.5,221.3,218.8,220.8,218.5z"/>
			<path class="st2" d="M191.9,199l-5.5-3.2c-0.4-0.2-0.8-0.9-0.8-1.5l0,0c0-0.6,0.3-0.8,0.8-0.6l5.5,3.2c0.4,0.2,0.8,0.9,0.8,1.5
				l0,0C192.6,199,192.3,199.2,191.9,199z"/>
			<path class="st3" d="M197.5,201.4c0,1.1-0.8,1.5-1.7,1c-0.9-0.5-1.7-1.9-1.7-2.9s0.8-1.5,1.7-1
				C196.7,199,197.5,200.3,197.5,201.4z"/>
			<path class="st5" d="M204,205.2c0,0.6-0.4,0.8-0.9,0.5c-0.5-0.3-0.9-1-0.9-1.6s0.4-0.8,0.9-0.5C203.6,203.9,204,204.6,204,205.2z
				"/>
			<path class="st2" d="M207.2,207c0,0.6-0.4,0.8-0.9,0.5c-0.5-0.3-0.9-1-0.9-1.6s0.4-0.8,0.9-0.5
				C206.8,205.7,207.2,206.4,207.2,207z"/>
			<path class="st5" d="M210.4,208.8c0,0.6-0.4,0.8-0.9,0.5c-0.5-0.3-0.9-1-0.9-1.6s0.4-0.8,0.9-0.5
				C210,207.6,210.4,208.3,210.4,208.8z"/>
			<path class="st2" d="M219.3,215.4l-1.8-1.1c-0.3-0.2-0.5-0.6-0.5-1v-1.9c0-0.4,0.2-0.5,0.5-0.4l1.8,1.1c0.3,0.2,0.5,0.6,0.5,1
				v1.9C219.8,215.4,219.6,215.6,219.3,215.4z"/>
		</g>
	</g>
	<g>
		<path class="st4" d="M88.2,290L1.7,240c-2.4-1.4-2.1-3.9,0.7-5.5l58.9-34c2.8-1.6,7.1-1.8,9.6-0.4l86.6,50
			c2.4,1.4,2.1,3.9-0.7,5.5l-58.9,34C94.9,291.2,90.7,291.4,88.2,290z"/>
		<path class="st5" d="M177.7,161.5l-86.6-50c-1-0.6-2-0.7-2.9-0.4l0,0l-0.2,0.1c0,0,0,0,0,0l-3.1,1.2l2.8,1.4c0,0.1,0,0.1,0,0.2
			l-14.1,64.2c-0.7,3.2,0.7,7,3.2,8.4l84.5,48.8l-0.3,3.6l3.4-1.3c1.1-0.5,2.1-1.8,2.4-3.5l14.1-64.2
			C181.5,166.7,180.1,163,177.7,161.5z"/>
		<path class="st1" d="M177.7,161.5l-86.6-50c-1-0.6-2-0.7-2.9-0.4l0,0l-0.2,0.1c0,0,0,0,0,0l-3.1,1.2l2.8,1.4c0,0.1,0,0.1,0,0.2
			l-9.3,42.3l42.4,33l59.7-24.3C179.8,163.5,178.9,162.2,177.7,161.5z"/>
		<path class="st8" d="M174.4,171.4l6.6-2.8c0.1-2.6-0.9-5.2-2.7-6.6l-10.4,4.4L174.4,171.4z"/>
		<path class="st2" d="M157.9,238.6l-86.6-50c-2.4-1.4-3.9-5.2-3.2-8.4L82.2,116c0.7-3.2,3.3-4.7,5.7-3.3l86.6,50
			c2.4,1.4,3.9,5.2,3.2,8.4l-14.1,64.2C162.9,238.5,160.3,240,157.9,238.6z"/>
		<path class="st3" d="M175.3,162.4l-86.6-50c-1.2-0.7-2.4-0.7-3.4-0.1c0.8-0.2,1.7-0.1,2.6,0.5l86.6,50c2.4,1.4,3.9,5.2,3.2,8.4
			l-14.1,64.2c-0.4,1.7-1.2,2.8-2.3,3.4c1.5-0.3,2.7-1.6,3.1-3.7l14.1-64.2C179.2,167.6,177.8,163.9,175.3,162.4z"/>
		<path class="st3" d="M156,233.8l-81.4-47c-2.2-1.3-3.5-4.7-2.9-7.7l12.9-58.7c0.6-2.9,3-4.3,5.2-3l81.4,47
			c2.2,1.3,3.5,4.7,2.9,7.7l-12.9,58.7C160.6,233.8,158.2,235.1,156,233.8z"/>
		<path class="st5" d="M156,233.8l-81.4-47c-2.2-1.3-3.5-4.7-2.9-7.7l12.9-58.7c0.6-2.9,3-4.3,5.2-3l81.4,47
			c2.2,1.3,3.5,4.7,2.9,7.7l-12.9,58.7C160.6,233.8,158.2,235.1,156,233.8z"/>
		<path class="st0" d="M156.7,233.5l-81.4-47c-2.2-1.3-3.5-4.7-2.9-7.7l12.9-58.7c0.3-1.5,1.1-2.6,2.1-3.1c-1.3,0.3-2.4,1.5-2.8,3.4
			l-12.9,58.7c-0.6,2.9,0.6,6.4,2.9,7.7l81.4,47c1.1,0.6,2.2,0.6,3.2,0.1C158.4,234.1,157.5,234,156.7,233.5z"/>
		<path class="st5" d="M159.1,240.7l-11.8-1.6l-76.4-44.1c-2.4-1.4-6.7-1.2-9.6,0.4L7.2,226.7L0,225.8v4.1l0,0
			c0,0.9,0.5,1.8,1.6,2.5l86.6,50c2.4,1.4,6.7,1.2,9.6-0.4l58.9-34c1.6-0.9,2.4-2.1,2.3-3.2l0,0V240.7z"/>
		<path class="st1" d="M101.7,212.9l-5.4-3.1H36.6l-29.4,17L0,225.8v4.1l0,0c0,0.9,0.5,1.8,1.6,2.5l86.6,50c1.3,0.7,3.1,1,4.9,0.9
			L101.7,212.9z"/>
		<path class="st0" d="M3.2,226.2L0,225.8v4.1l0,0c0,0.9,0.5,1.8,1.6,2.5l1.5,0.9V226.2z"/>
		<path class="st8" d="M89.1,282.7c2.3,0.9,5.6,0.7,8.1-0.5v-9.1h-8.1V282.7z"/>
		<path class="st2" d="M88.2,278.3l-86.6-50c-2.4-1.4-2.1-3.9,0.7-5.5l58.9-34c2.8-1.6,7.1-1.8,9.6-0.4l86.6,50
			c2.4,1.4,2.1,3.9-0.7,5.5l-58.9,34C94.9,279.5,90.7,279.7,88.2,278.3z"/>
		<path class="st3" d="M156.7,242.4l-58.9,34c-2.8,1.6-7.1,1.8-9.6,0.4l-86.6-50c-0.8-0.5-1.3-1-1.5-1.7c-0.4,1.2,0.1,2.3,1.5,3.1
			l86.6,50c2.4,1.4,6.7,1.2,9.6-0.4l58.9-34c1.9-1.1,2.7-2.6,2.2-3.9C158.6,240.8,157.9,241.7,156.7,242.4z"/>
		<g>
			<path class="st0" d="M38.5,211.7l-3.9-2.3c-0.3-0.2-0.3-0.5,0.1-0.7l4.6-2.7c0.4-0.2,0.9-0.2,1.2-0.1l3.9,2.3
				c0.3,0.2,0.3,0.5-0.1,0.7l-4.6,2.7C39.3,211.9,38.8,211.9,38.5,211.7z"/>
			<path class="st0" d="M44.5,215.2l-3.9-2.3c-0.3-0.2-0.3-0.5,0.1-0.7l4.6-2.7c0.4-0.2,0.9-0.2,1.2-0.1l3.9,2.3
				c0.3,0.2,0.3,0.5-0.1,0.7l-4.6,2.7C45.4,215.4,44.8,215.4,44.5,215.2z"/>
			<path class="st0" d="M50.6,218.7l-3.9-2.3c-0.3-0.2-0.3-0.5,0.1-0.7l4.6-2.7c0.4-0.2,0.9-0.2,1.2-0.1l3.9,2.3
				c0.3,0.2,0.3,0.5-0.1,0.7l-4.6,2.7C51.4,218.9,50.9,218.9,50.6,218.7z"/>
			<path class="st0" d="M58.9,215.8l-3.9-2.3c-0.3-0.2-0.3-0.5,0.1-0.7l3.9-2.2c0.4-0.2,0.9-0.2,1.2-0.1l3.9,2.3
				c0.3,0.2,0.3,0.5-0.1,0.7l-3.9,2.2C59.8,216,59.2,216,58.9,215.8z"/>
			<path class="st0" d="M65,219.3l-3.9-2.3c-0.3-0.2-0.3-0.5,0.1-0.7l3.9-2.2c0.4-0.2,0.9-0.2,1.2-0.1l3.9,2.3
				c0.3,0.2,0.3,0.5-0.1,0.7l-3.9,2.2C65.8,219.5,65.3,219.5,65,219.3z"/>
			<path class="st0" d="M71,222.8l-3.9-2.3c-0.3-0.2-0.3-0.5,0.1-0.7l3.9-2.2c0.4-0.2,0.9-0.2,1.2-0.1l3.9,2.3
				c0.3,0.2,0.3,0.5-0.1,0.7l-3.9,2.2C71.9,223,71.3,223,71,222.8z"/>
			<path class="st0" d="M77.1,226.3l-3.9-2.3c-0.3-0.2-0.3-0.5,0.1-0.7l3.9-2.2c0.4-0.2,0.9-0.2,1.2-0.1l3.9,2.3
				c0.3,0.2,0.3,0.5-0.1,0.7l-3.9,2.2C77.9,226.5,77.4,226.5,77.1,226.3z"/>
			<path class="st0" d="M83.1,229.8l-3.9-2.3c-0.3-0.2-0.3-0.5,0.1-0.7l3.9-2.2c0.4-0.2,0.9-0.2,1.2-0.1l3.9,2.3
				c0.3,0.2,0.3,0.5-0.1,0.7l-3.9,2.2C84,230,83.4,230,83.1,229.8z"/>
			<path class="st0" d="M89.2,233.3l-3.9-2.3c-0.3-0.2-0.3-0.5,0.1-0.7l3.9-2.2c0.4-0.2,0.9-0.2,1.2-0.1l3.9,2.3
				c0.3,0.2,0.3,0.5-0.1,0.7l-3.9,2.2C90,233.5,89.5,233.5,89.2,233.3z"/>
			<path class="st0" d="M95.2,236.8l-3.9-2.3c-0.3-0.2-0.3-0.5,0.1-0.7l3.9-2.2c0.4-0.2,0.9-0.2,1.2-0.1l3.9,2.3
				c0.3,0.2,0.3,0.5-0.1,0.7l-3.9,2.2C96.1,237,95.5,237,95.2,236.8z"/>
			<path class="st0" d="M101.3,240.3l-3.9-2.3c-0.3-0.2-0.3-0.5,0.1-0.7l3.9-2.2c0.4-0.2,0.9-0.2,1.2-0.1l3.9,2.3
				c0.3,0.2,0.3,0.5-0.1,0.7l-3.9,2.2C102.1,240.4,101.6,240.5,101.3,240.3z"/>
			<path class="st0" d="M107.3,243.8l-3.9-2.3c-0.3-0.2-0.3-0.5,0.1-0.7l3.9-2.2c0.4-0.2,0.9-0.2,1.2-0.1l3.9,2.3
				c0.3,0.2,0.3,0.5-0.1,0.7l-3.9,2.2C108.2,243.9,107.6,244,107.3,243.8z"/>
			<path class="st0" d="M113.4,247.3l-3.9-2.3c-0.3-0.2-0.3-0.5,0.1-0.7l3.9-2.2c0.4-0.2,0.9-0.2,1.2-0.1l3.9,2.3
				c0.3,0.2,0.3,0.5-0.1,0.7l-3.9,2.2C114.2,247.4,113.7,247.4,113.4,247.3z"/>
			<path class="st0" d="M67.8,214.2l-3.9-2.3c-0.3-0.2-0.3-0.5,0.1-0.7l3.9-2.2c0.4-0.2,0.9-0.2,1.2-0.1l3.9,2.3
				c0.3,0.2,0.3,0.5-0.1,0.7l-3.9,2.2C68.7,214.3,68.2,214.4,67.8,214.2z"/>
			<path class="st0" d="M61.7,210.6l-3.9-2.3c-0.3-0.2-0.3-0.5,0.1-0.7l3.9-2.2c0.4-0.2,0.9-0.2,1.2-0.1l3.9,2.3
				c0.3,0.2,0.3,0.5-0.1,0.7l-3.9,2.2C62.6,210.8,62,210.8,61.7,210.6z"/>
			<path class="st0" d="M55.6,207.1l-8.4-4.9c-0.3-0.2-0.3-0.5,0.1-0.7l3.9-2.2c0.4-0.2,0.9-0.2,1.2-0.1l8.4,4.9
				c0.3,0.2,0.3,0.5-0.1,0.7l-3.9,2.2C56.4,207.2,55.9,207.3,55.6,207.1z"/>
			<path class="st0" d="M59.9,202.8l-6.8-4c-0.3-0.2-0.3-0.5,0.1-0.7l3.9-2.2c0.4-0.2,0.9-0.2,1.2-0.1l6.8,4
				c0.3,0.2,0.3,0.5-0.1,0.7l-3.9,2.2C60.7,202.9,60.2,203,59.9,202.8z"/>
			<path class="st0" d="M73.9,217.7l-3.9-2.3c-0.3-0.2-0.3-0.5,0.1-0.7l3.9-2.2c0.4-0.2,0.9-0.2,1.2-0.1l3.9,2.3
				c0.3,0.2,0.3,0.5-0.1,0.7l-3.9,2.2C74.8,217.8,74.2,217.9,73.9,217.7z"/>
			<path class="st0" d="M79.9,221.2l-3.9-2.3c-0.3-0.2-0.3-0.5,0.1-0.7L80,216c0.4-0.2,0.9-0.2,1.2-0.1l3.9,2.3
				c0.3,0.2,0.3,0.5-0.1,0.7l-3.9,2.2C80.8,221.3,80.3,221.4,79.9,221.2z"/>
			<path class="st0" d="M86,224.7l-3.9-2.3c-0.3-0.2-0.3-0.5,0.1-0.7l3.9-2.2c0.4-0.2,0.9-0.2,1.2-0.1l3.9,2.3
				c0.3,0.2,0.3,0.5-0.1,0.7l-3.9,2.2C86.9,224.8,86.3,224.8,86,224.7z"/>
			<path class="st0" d="M92,228.2l-3.9-2.3c-0.3-0.2-0.3-0.5,0.1-0.7l3.9-2.2c0.4-0.2,0.9-0.2,1.2-0.1l3.9,2.3
				c0.3,0.2,0.3,0.5-0.1,0.7l-3.9,2.2C92.9,228.3,92.4,228.3,92,228.2z"/>
			<path class="st0" d="M98.1,231.6l-3.9-2.3c-0.3-0.2-0.3-0.5,0.1-0.7l3.9-2.2c0.4-0.2,0.9-0.2,1.2-0.1l3.9,2.3
				c0.3,0.2,0.3,0.5-0.1,0.7l-3.9,2.2C99,231.8,98.4,231.8,98.1,231.6z"/>
			<path class="st0" d="M104.1,235.1l-3.9-2.3c-0.3-0.2-0.3-0.5,0.1-0.7l3.9-2.2c0.4-0.2,0.9-0.2,1.2-0.1l3.9,2.3
				c0.3,0.2,0.3,0.5-0.1,0.7l-3.9,2.2C105,235.3,104.5,235.3,104.1,235.1z"/>
			<path class="st0" d="M110.2,238.6l-3.9-2.3c-0.3-0.2-0.3-0.5,0.1-0.7l3.9-2.2c0.4-0.2,0.9-0.2,1.2-0.1l3.9,2.3
				c0.3,0.2,0.3,0.5-0.1,0.7l-3.9,2.2C111,238.8,110.5,238.8,110.2,238.6z"/>
			<path class="st0" d="M116.2,242.1l-3.9-2.3c-0.3-0.2-0.3-0.5,0.1-0.7l3.9-2.2c0.4-0.2,0.9-0.2,1.2-0.1l3.9,2.3
				c0.3,0.2,0.3,0.5-0.1,0.7l-3.9,2.2C117.1,242.3,116.5,242.3,116.2,242.1z"/>
			<path class="st0" d="M122.3,245.6l-3.9-2.3c-0.3-0.2-0.3-0.5,0.1-0.7l3.9-2.2c0.4-0.2,0.9-0.2,1.2-0.1l3.9,2.3
				c0.3,0.2,0.3,0.5-0.1,0.7l-3.9,2.2C123.1,245.8,122.6,245.8,122.3,245.6z"/>
			<path class="st0" d="M133,251.8l-8.5-4.9c-0.3-0.2-0.3-0.5,0.1-0.7l3.9-2.2c0.4-0.2,0.9-0.2,1.2-0.1l8.5,4.9
				c0.3,0.2,0.3,0.5-0.1,0.7l-3.9,2.2C133.9,252,133.3,252,133,251.8z"/>
			<path class="st0" d="M144.8,245l-7.2-4.2c-0.3-0.2-0.3-0.5,0.1-0.7l3.9-2.2c0.4-0.2,0.9-0.2,1.2-0.1l7.2,4.2
				c0.3,0.2,0.3,0.5-0.1,0.7L146,245C145.7,245.2,145.1,245.2,144.8,245z"/>
			<path class="st0" d="M84.5,217l-3.9-2.3c-0.3-0.2-0.3-0.5,0.1-0.7l3.9-2.2c0.4-0.2,0.9-0.2,1.2-0.1l3.9,2.3
				c0.3,0.2,0.3,0.5-0.1,0.7l-3.9,2.2C85.3,217.2,84.8,217.2,84.5,217z"/>
			<path class="st0" d="M78.3,213.4l-3.9-2.3c-0.3-0.2-0.3-0.5,0.1-0.7l3.9-2.2c0.4-0.2,0.9-0.2,1.2-0.1l3.9,2.3
				c0.3,0.2,0.3,0.5-0.1,0.7l-3.9,2.2C79.2,213.6,78.6,213.6,78.3,213.4z"/>
			<path class="st0" d="M72.1,209.8l-3.9-2.3c-0.3-0.2-0.3-0.5,0.1-0.7l3.9-2.2c0.4-0.2,0.9-0.2,1.2-0.1l3.9,2.3
				c0.3,0.2,0.3,0.5-0.1,0.7l-3.9,2.2C73,210,72.4,210,72.1,209.8z"/>
			<path class="st0" d="M65.9,206.3L62,204c-0.3-0.2-0.3-0.5,0.1-0.7l3.9-2.2c0.4-0.2,0.9-0.2,1.2-0.1l3.9,2.3
				c0.3,0.2,0.3,0.5-0.1,0.7l-3.9,2.2C66.8,206.4,66.2,206.4,65.9,206.3z"/>
			<path class="st0" d="M90.5,220.5l-3.9-2.3c-0.3-0.2-0.3-0.5,0.1-0.7l3.9-2.2c0.4-0.2,0.9-0.2,1.2-0.1l3.9,2.3
				c0.3,0.2,0.3,0.5-0.1,0.7l-3.9,2.2C91.4,220.6,90.8,220.7,90.5,220.5z"/>
			<path class="st0" d="M96.6,224l-3.9-2.3c-0.3-0.2-0.3-0.5,0.1-0.7l3.9-2.2c0.4-0.2,0.9-0.2,1.2-0.1l3.9,2.3
				c0.3,0.2,0.3,0.5-0.1,0.7l-3.9,2.2C97.4,224.1,96.9,224.2,96.6,224z"/>
			<path class="st0" d="M102.6,227.5l-3.9-2.3c-0.3-0.2-0.3-0.5,0.1-0.7l3.9-2.2c0.4-0.2,0.9-0.2,1.2-0.1l3.9,2.3
				c0.3,0.2,0.3,0.5-0.1,0.7l-3.9,2.2C103.5,227.6,102.9,227.7,102.6,227.5z"/>
			<path class="st0" d="M108.7,231l-3.9-2.3c-0.3-0.2-0.3-0.5,0.1-0.7l3.9-2.2c0.4-0.2,0.9-0.2,1.2-0.1l3.9,2.3
				c0.3,0.2,0.3,0.5-0.1,0.7l-3.9,2.2C109.5,231.1,109,231.1,108.7,231z"/>
			<path class="st0" d="M114.7,234.5l-3.9-2.3c-0.3-0.2-0.3-0.5,0.1-0.7l3.9-2.2c0.4-0.2,0.9-0.2,1.2-0.1l3.9,2.3
				c0.3,0.2,0.3,0.5-0.1,0.7l-3.9,2.2C115.6,234.6,115,234.6,114.7,234.5z"/>
			<path class="st0" d="M120.8,237.9l-3.9-2.3c-0.3-0.2-0.3-0.5,0.1-0.7l3.9-2.2c0.4-0.2,0.9-0.2,1.2-0.1l3.9,2.3
				c0.3,0.2,0.3,0.5-0.1,0.7l-3.9,2.2C121.6,238.1,121.1,238.1,120.8,237.9z"/>
			<path class="st0" d="M126.8,241.4l-3.9-2.3c-0.3-0.2-0.3-0.5,0.1-0.7l3.9-2.2c0.4-0.2,0.9-0.2,1.2-0.1l3.9,2.3
				c0.3,0.2,0.3,0.5-0.1,0.7l-3.9,2.2C127.7,241.6,127.1,241.6,126.8,241.4z"/>
			<path class="st0" d="M132.9,244.9l-3.9-2.3c-0.3-0.2-0.3-0.5,0.1-0.7l3.9-2.2c0.4-0.2,0.9-0.2,1.2-0.1l3.9,2.3
				c0.3,0.2,0.3,0.5-0.1,0.7l-3.9,2.2C133.7,245.1,133.2,245.1,132.9,244.9z"/>
			<path class="st0" d="M138.9,248.4l-3.9-2.3c-0.3-0.2-0.3-0.5,0.1-0.7l3.9-2.2c0.4-0.2,0.9-0.2,1.2-0.1l3.9,2.3
				c0.3,0.2,0.3,0.5-0.1,0.7l-3.9,2.2C139.8,248.6,139.2,248.6,138.9,248.4z"/>
			<path class="st0" d="M81.3,208.4l-3.9-2.3c-0.3-0.2-0.3-0.5,0.1-0.7l3.9-2.2c0.4-0.2,0.9-0.2,1.2-0.1l3.9,2.3
				c0.3,0.2,0.3,0.5-0.1,0.7l-3.9,2.2C82.2,208.5,81.6,208.5,81.3,208.4z"/>
			<path class="st0" d="M75.3,204.9l-3.9-2.3c-0.3-0.2-0.3-0.5,0.1-0.7l3.9-2.2c0.4-0.2,0.9-0.2,1.2-0.1l3.9,2.3
				c0.3,0.2,0.3,0.5-0.1,0.7l-3.9,2.2C76.1,205,75.6,205.1,75.3,204.9z"/>
			<path class="st0" d="M69.3,201.4l-3.9-2.3c-0.3-0.2-0.3-0.5,0.1-0.7l3.9-2.2c0.4-0.2,0.9-0.2,1.2-0.1l3.9,2.3
				c0.3,0.2,0.3,0.5-0.1,0.7l-3.9,2.2C70.1,201.6,69.6,201.6,69.3,201.4z"/>
			<path class="st0" d="M63.2,197.9l-3.9-2.3c-0.3-0.2-0.3-0.5,0.1-0.7l3.9-2.2c0.4-0.2,0.9-0.2,1.2-0.1l3.9,2.3
				c0.3,0.2,0.3,0.5-0.1,0.7l-3.9,2.2C64.1,198.1,63.6,198.1,63.2,197.9z"/>
			<path class="st0" d="M69.4,194.4l-3.9-2.3c-0.3-0.2-0.3-0.5,0.1-0.7l1.3-0.7c0.4-0.2,0.9-0.2,1.2-0.1l3.9,2.3
				c0.3,0.2,0.3,0.5-0.1,0.7l-1.3,0.7C70.3,194.5,69.7,194.5,69.4,194.4z"/>
			<path class="st0" d="M77.3,198.9l-3.9-2.3c-0.3-0.2-0.3-0.5,0.1-0.7l1.3-0.7c0.4-0.2,0.9-0.2,1.2-0.1l3.9,2.3
				c0.3,0.2,0.3,0.5-0.1,0.7l-1.3,0.7C78.2,199.1,77.6,199.1,77.3,198.9z"/>
			<path class="st0" d="M83.3,202.4l-3.9-2.3c-0.3-0.2-0.3-0.5,0.1-0.7l1.3-0.7c0.4-0.2,0.9-0.2,1.2-0.1l3.9,2.3
				c0.3,0.2,0.3,0.5-0.1,0.7l-1.3,0.7C84.1,202.5,83.6,202.5,83.3,202.4z"/>
			<path class="st0" d="M89.3,205.8l-3.9-2.3c-0.3-0.2-0.3-0.5,0.1-0.7l1.3-0.7c0.4-0.2,0.9-0.2,1.2-0.1l3.9,2.3
				c0.3,0.2,0.3,0.5-0.1,0.7l-1.3,0.7C90.1,206,89.6,206,89.3,205.8z"/>
			<path class="st0" d="M95.3,209.3l-3.9-2.3c-0.3-0.2-0.3-0.5,0.1-0.7l1.3-0.7c0.4-0.2,0.9-0.2,1.2-0.1l3.9,2.3
				c0.3,0.2,0.3,0.5-0.1,0.7l-1.3,0.7C96.1,209.4,95.6,209.5,95.3,209.3z"/>
			<path class="st0" d="M128.7,228.6l-3.9-2.3c-0.3-0.2-0.3-0.5,0.1-0.7l1.3-0.7c0.4-0.2,0.9-0.2,1.2-0.1l3.9,2.3
				c0.3,0.2,0.3,0.5-0.1,0.7l-1.3,0.7C129.6,228.8,129,228.8,128.7,228.6z"/>
			<path class="st0" d="M134.7,232.1l-3.9-2.3c-0.3-0.2-0.3-0.5,0.1-0.7l1.3-0.7c0.4-0.2,0.9-0.2,1.2-0.1l3.9,2.3
				c0.3,0.2,0.3,0.5-0.1,0.7l-1.3,0.7C135.6,232.2,135,232.2,134.7,232.1z"/>
			<path class="st0" d="M140.7,235.5l-3.9-2.3c-0.3-0.2-0.3-0.5,0.1-0.7l1.3-0.7c0.4-0.2,0.9-0.2,1.2-0.1l3.9,2.3
				c0.3,0.2,0.3,0.5-0.1,0.7l-1.3,0.7C141.6,235.7,141,235.7,140.7,235.5z"/>
			<path class="st0" d="M146.7,239l-3.9-2.3c-0.3-0.2-0.3-0.5,0.1-0.7l1.3-0.7c0.4-0.2,0.9-0.2,1.2-0.1l3.9,2.3
				c0.3,0.2,0.3,0.5-0.1,0.7l-1.3,0.7C147.6,239.1,147,239.2,146.7,239z"/>
			<path class="st0" d="M87.3,211.8l-3.9-2.3c-0.3-0.2-0.3-0.5,0.1-0.7l3.9-2.2c0.4-0.2,0.9-0.2,1.2-0.1l3.9,2.3
				c0.3,0.2,0.3,0.5-0.1,0.7l-3.9,2.2C88.2,212,87.7,212,87.3,211.8z"/>
			<path class="st0" d="M93.4,215.3l-3.9-2.3c-0.3-0.2-0.3-0.5,0.1-0.7l3.9-2.2c0.4-0.2,0.9-0.2,1.2-0.1l3.9,2.3
				c0.3,0.2,0.3,0.5-0.1,0.7l-3.9,2.2C94.3,215.5,93.7,215.5,93.4,215.3z"/>
			<path class="st0" d="M99.4,218.8l-3.9-2.3c-0.3-0.2-0.3-0.5,0.1-0.7l3.9-2.2c0.4-0.2,0.9-0.2,1.2-0.1l3.9,2.3
				c0.3,0.2,0.3,0.5-0.1,0.7l-3.9,2.2C100.3,219,99.8,219,99.4,218.8z"/>
			<path class="st0" d="M105.5,222.3l-3.9-2.3c-0.3-0.2-0.3-0.5,0.1-0.7l3.9-2.2c0.4-0.2,0.9-0.2,1.2-0.1l3.9,2.3
				c0.3,0.2,0.3,0.5-0.1,0.7l-3.9,2.2C106.4,222.5,105.8,222.5,105.5,222.3z"/>
			<path class="st0" d="M111.5,225.8l-3.9-2.3c-0.3-0.2-0.3-0.5,0.1-0.7l3.9-2.2c0.4-0.2,0.9-0.2,1.2-0.1l3.9,2.3
				c0.3,0.2,0.3,0.5-0.1,0.7l-3.9,2.2C112.4,226,111.9,226,111.5,225.8z"/>
			<path class="st0" d="M117.6,229.3l-3.9-2.3c-0.3-0.2-0.3-0.5,0.1-0.7l3.9-2.2c0.4-0.2,0.9-0.2,1.2-0.1l3.9,2.3
				c0.3,0.2,0.3,0.5-0.1,0.7l-3.9,2.2C118.5,229.5,117.9,229.5,117.6,229.3z"/>
			<path class="st0" d="M123.6,232.8l-3.9-2.3c-0.3-0.2-0.3-0.5,0.1-0.7l3.9-2.2c0.4-0.2,0.9-0.2,1.2-0.1l3.9,2.3
				c0.3,0.2,0.3,0.5-0.1,0.7l-3.9,2.2C124.5,233,124,233,123.6,232.8z"/>
			<path class="st0" d="M129.7,236.3l-3.9-2.3c-0.3-0.2-0.3-0.5,0.1-0.7l3.9-2.2c0.4-0.2,0.9-0.2,1.2-0.1l3.9,2.3
				c0.3,0.2,0.3,0.5-0.1,0.7l-3.9,2.2C130.6,236.5,130,236.5,129.7,236.3z"/>
			<path class="st0" d="M135.7,239.8l-3.9-2.3c-0.3-0.2-0.3-0.5,0.1-0.7l3.9-2.2c0.4-0.2,0.9-0.2,1.2-0.1l3.9,2.3
				c0.3,0.2,0.3,0.5-0.1,0.7l-3.9,2.2C136.6,239.9,136.1,240,135.7,239.8z"/>
			<path class="st0" d="M52.8,212.3l-11.5-6.7c-0.3-0.2-0.3-0.5,0.1-0.7l3.9-2.2c0.4-0.2,0.9-0.2,1.2-0.1l11.5,6.7
				c0.3,0.2,0.3,0.5-0.1,0.7l-3.9,2.2C53.6,212.4,53.1,212.5,52.8,212.3z"/>
			<path class="st0" d="M127.1,255.2l-11.5-6.7c-0.3-0.2-0.3-0.5,0.1-0.7l3.9-2.2c0.4-0.2,0.9-0.2,1.2-0.1l11.5,6.7
				c0.3,0.2,0.3,0.5-0.1,0.7l-3.9,2.2C127.9,255.3,127.4,255.4,127.1,255.2z"/>
			<path class="st0" d="M102.9,248.9l-3.9-2.3c-0.3-0.2-0.3-0.5,0.1-0.7l4.6-2.7c0.4-0.2,0.9-0.2,1.2-0.1l3.9,2.3
				c0.3,0.2,0.3,0.5-0.1,0.7l-4.6,2.7C103.8,249.1,103.2,249.1,102.9,248.9z"/>
			<path class="st0" d="M59,223.6l-6.3-3.6c-0.3-0.2-0.3-0.5,0.1-0.7l4.6-2.7c0.4-0.2,0.9-0.2,1.2-0.1l6.3,3.6
				c0.3,0.2,0.3,0.5-0.1,0.7l-4.6,2.7C59.8,223.7,59.3,223.8,59,223.6z"/>
			<path class="st0" d="M97.1,245.6l-6.3-3.6c-0.3-0.2-0.3-0.5,0.1-0.7l4.6-2.7c0.4-0.2,0.9-0.2,1.2-0.1l6.3,3.6
				c0.3,0.2,0.3,0.5-0.1,0.7l-4.6,2.7C97.9,245.7,97.4,245.7,97.1,245.6z"/>
			<path class="st0" d="M67.7,228.6l-6.3-3.6c-0.3-0.2-0.3-0.5,0.1-0.7l4.6-2.7c0.4-0.2,0.9-0.2,1.2-0.1l6.3,3.6
				c0.3,0.2,0.3,0.5-0.1,0.7l-4.6,2.7C68.6,228.8,68,228.8,67.7,228.6z"/>
			<path class="st0" d="M67.4,221.6l27.2,15.7c0.3,0.2,0.3,0.5,0,0.7l-4.7,2.7c-0.3,0.2-0.9,0.2-1.2,0L61.5,225L67.4,221.6z"/>
			<path class="st0" d="M119.8,255.3l4.4,2.5c0.3,0.1,0.2,0.4-0.1,0.6l-1.9,1.1c-0.3,0.2-0.7,0.2-1,0l-4.4-2.5
				c-0.3-0.1-0.2-0.4,0.1-0.6l1.9-1.1C119.1,255.1,119.5,255.1,119.8,255.3z"/>
			<path class="st0" d="M113.7,251.7l4.4,2.5c0.3,0.1,0.2,0.4-0.1,0.6l-1.9,1.1c-0.3,0.2-0.7,0.2-1,0l-4.4-2.5
				c-0.3-0.1-0.2-0.4,0.1-0.6l1.9-1.1C113,251.6,113.4,251.6,113.7,251.7z"/>
			<path class="st0" d="M107.6,248.2l4.4,2.5c0.3,0.1,0.2,0.4-0.1,0.6l-1.9,1.1c-0.3,0.2-0.7,0.2-1,0l-4.4-2.5
				c-0.3-0.1-0.2-0.4,0.1-0.6l1.9-1.1C106.9,248.1,107.4,248.1,107.6,248.2z"/>
			<path class="st0" d="M117,249.8l4.4,2.5c0.3,0.1,0.2,0.4-0.1,0.6l-1.9,1.1c-0.3,0.2-0.7,0.2-1,0l-4.4-2.5
				c-0.3-0.1-0.2-0.4,0.1-0.6l1.9-1.1C116.3,249.7,116.8,249.7,117,249.8z"/>
		</g>
		<g>
			<polygon class="st3" points="140.9,181.7 108.3,162.9 108.8,160.7 141.3,179.6 			"/>
			<polygon class="st3" points="129.3,185.2 106.5,172.1 106.9,170 129.7,183.1 			"/>
			<polygon class="st9" points="127.1,178.8 107.4,167.5 107.8,165.4 127.5,176.7 			"/>
			<polygon class="st2" points="140,186.3 130.2,180.6 130.6,178.5 140.4,184.2 			"/>
		</g>
		<g>
			<path class="st2" d="M122.9,160.7c-0.3,0.7-1.1,0.9-1.8,0.5c-0.7-0.4-0.9-1.2-0.6-1.9c0.3-0.7,1.1-0.9,1.8-0.5
				C123,159.1,123.2,160,122.9,160.7z"/>
			<path class="st3" d="M127.2,163.1c-0.3,0.7-1.1,0.9-1.8,0.5c-0.7-0.4-0.9-1.2-0.6-1.9c0.3-0.7,1.1-0.9,1.8-0.5
				C127.2,161.6,127.5,162.4,127.2,163.1z"/>
			<path class="st2" d="M131.4,165.6c-0.3,0.7-1.1,0.9-1.8,0.5c-0.7-0.4-0.9-1.2-0.6-1.9c0.3-0.7,1.1-0.9,1.8-0.5
				C131.4,164,131.7,164.9,131.4,165.6z"/>
			<path class="st9" d="M135.6,168c-0.3,0.7-1.1,0.9-1.8,0.5c-0.7-0.4-0.9-1.2-0.6-1.9c0.3-0.7,1.1-0.9,1.8-0.5
				C135.7,166.5,136,167.3,135.6,168z"/>
		</g>
	</g>
	<g>
		<g>
			<path class="st2" d="M140.9,81.7l-1.7-1v-2.4c0-2.6-1.8-5.7-4.1-7l-12.7-7.3c-2.2-1.3-4.1-0.2-4.1,2.3v2.4l-1.7-1v-2.4
				c0-3.6,2.6-5.1,5.7-3.3l12.7,7.3c3.2,1.8,5.7,6.3,5.7,9.9V81.7z"/>
		</g>
		<path class="st2" d="M135.2,85l5.7-3.3l-1.2-4l-1.6-4c0,0-2.8-3.1-3-3.1c-0.2-0.1-7.7-4.3-7.7-4.3l-6.2-4.5l-3,0.1l-5.5,3.2l4,1.6
			c0,0,2.3,1.1,2.8,1.3c0.5,0.1,2.7,2.2,2.8,2.3c0,0,2.7,1.1,2.7,1.1l0.6-0.1l4.9,3.4l1.6,0.7l0.8,1.4l1.3,3.6L135.2,85z"/>
		<path class="st1" d="M118.4,68.8l-5.7,3.3c0,0-0.4-3.7-0.4-3.7c0,0,1.3-1.8,1.3-1.8l3.1-0.6l2.5,1.9l-0.8-0.3l-0.3,0.2l0.4,0.6
			V68.8z"/>
		<g>
			<path class="st0" d="M135.2,85l-1.7-1v-2.4c0-2.6-1.8-5.7-4.1-7l-12.7-7.3c-2.2-1.3-4.1-0.2-4.1,2.3v2.4l-1.7-1v-2.4
				c0-3.6,2.6-5.1,5.7-3.3l12.7,7.3c3.2,1.8,5.7,6.3,5.7,9.9V85z"/>
		</g>
	</g>
	<g>
		<g>
			<path class="st2" d="M198.3,81.7l-1.2-0.7c-0.5,0.4-1,0.7-1.6,1l2.8,1.6c2.2,1.3,4.1,4.4,4.1,7v2.4l1.7,1v-2.4
				C204.1,88,201.5,83.5,198.3,81.7z"/>
		</g>
		<path class="st2" d="M201.3,86c0,0-2.8-3.1-3-3.1c-0.1,0-1-0.5-2.2-1.2c-1.8,1.2-3.6,2.2-5.5,3.2l2.9,2.1l1.6,0.7L196,89l1.3,3.6
			l1.1,4.7l5.7-3.3l-1.2-4L201.3,86z"/>
		<g>
			<path class="st0" d="M192.6,87c2.2,1.3,4.1,4.4,4.1,7v2.4l1.7,1v-2.4c0-3.6-2.6-8.1-5.7-9.9l-1.1-0.6c-0.6,0.3-1.2,0.6-1.7,0.9
				L192.6,87z"/>
		</g>
	</g>
</g>
<g>
	<g>
		<path class="st10" d="M302.2,41.7l-19.1-11c-0.4-0.2-0.7-0.2-1-0.1c0,0,0,0,0,0l-1.9,1.1c0,0,0.8,0.3,1.3,0.5V46
			c0,1.1,0.7,2.5,1.5,2.9l18.3,10.6v1.6l1.9-1.1l0,0c0.3-0.2,0.5-0.6,0.5-1.2V44.6C303.7,43.5,303,42.2,302.2,41.7z"/>
		<path class="st9" d="M300.3,61.1l-19.1-11c-0.9-0.5-1.5-1.8-1.5-2.9V32.9c0-1.1,0.7-1.7,1.5-1.2l19.1,11c0.9,0.5,1.5,1.8,1.5,2.9
			v14.2C301.8,61.1,301.1,61.6,300.3,61.1z"/>
		<path class="st3" d="M300.8,42.5l-19.1-11c-0.5-0.3-0.9-0.2-1.2,0c0.2,0,0.4,0,0.7,0.2l19.1,11c0.9,0.5,1.5,1.8,1.5,2.9v14.2
			c0,0.5-0.1,0.9-0.4,1.1c0.5,0,0.8-0.5,0.8-1.3V45.5C302.3,44.3,301.6,43,300.8,42.5z"/>
	</g>
	<g>
		<path class="st3" d="M287.6,45.1c0,0.8-0.6,1.2-1.3,0.7c-0.7-0.4-1.3-1.4-1.3-2.2c0-0.8,0.6-1.2,1.3-0.7
			C287,43.3,287.6,44.3,287.6,45.1z"/>
		<path class="st3" d="M291.5,47.4c0,0.8-0.6,1.2-1.3,0.7c-0.7-0.4-1.3-1.4-1.3-2.2c0-0.8,0.6-1.2,1.3-0.7
			C290.9,45.6,291.5,46.6,291.5,47.4z"/>
		<path class="st3" d="M295.4,49.7c0,0.8-0.6,1.2-1.3,0.7c-0.7-0.4-1.3-1.4-1.3-2.2c0-0.8,0.6-1.2,1.3-0.7
			C294.8,47.8,295.4,48.8,295.4,49.7z"/>
	</g>
</g>
<g>
	<g>
		<path class="st0" d="M291.3,23.8l-19.1-11c-0.4-0.2-0.7-0.2-1-0.1l0,0l-1.9,1.1c0,0,0.8,0.3,1.3,0.5v13.9c0,1.1,0.7,2.5,1.5,2.9
			l18.3,10.6v1.6l1.9-1.1l0,0c0.3-0.2,0.5-0.6,0.5-1.2V26.7C292.8,25.6,292.1,24.3,291.3,23.8z"/>
		<path class="st2" d="M289.4,43.2l-19.1-11c-0.9-0.5-1.5-1.8-1.5-2.9V15c0-1.1,0.7-1.7,1.5-1.2l19.1,11c0.9,0.5,1.5,1.8,1.5,2.9V42
			C290.9,43.2,290.3,43.7,289.4,43.2z"/>
		<path class="st3" d="M289.9,24.6l-19.1-11c-0.5-0.3-0.9-0.2-1.2,0c0.2,0,0.4,0,0.7,0.2l19.1,11c0.9,0.5,1.5,1.8,1.5,2.9V42
			c0,0.5-0.1,0.9-0.4,1.1c0.5,0,0.8-0.5,0.8-1.3V27.6C291.4,26.4,290.7,25.1,289.9,24.6z"/>
	</g>
	<g>
		<path class="st3" d="M276.7,27.2c0,0.8-0.6,1.2-1.3,0.7c-0.7-0.4-1.3-1.4-1.3-2.2s0.6-1.2,1.3-0.7
			C276.1,25.4,276.7,26.4,276.7,27.2z"/>
		<path class="st3" d="M280.6,29.5c0,0.8-0.6,1.2-1.3,0.7c-0.7-0.4-1.3-1.4-1.3-2.2c0-0.8,0.6-1.2,1.3-0.7
			C280,27.7,280.6,28.7,280.6,29.5z"/>
		<path class="st3" d="M284.5,31.8c0,0.8-0.6,1.2-1.3,0.7c-0.7-0.4-1.3-1.4-1.3-2.2c0-0.8,0.6-1.2,1.3-0.7
			C284,29.9,284.5,30.9,284.5,31.8z"/>
	</g>
</g>
<g>
	<g>
		<g>
			<g>
				<g>
					
						<rect x="328.7" y="140.2" transform="matrix(-0.632 0.775 -0.775 -0.632 653.0529 -19.3653)" class="st0" width="4.8" height="10.4"/>
					<path class="st0" d="M334.8,150.6c1-0.4,2-1.6,2.2-2.6c0.2-1.1-0.5-1.6-1.5-1.2c-1,0.4-2,1.6-2.2,2.6
						C333.1,150.4,333.8,151,334.8,150.6z"/>
				</g>
				<g>
					
						<rect x="320.5" y="134.6" transform="matrix(-0.632 0.775 -0.775 -0.632 637.7911 -23.1129)" class="st0" width="7.8" height="10.6"/>
					<path class="st1" d="M329.9,141.3l2.7,2.2c-0.4,1.5-1.7,3-3,3.7l-2.7-2.2C327.3,143.5,328.5,142,329.9,141.3z"/>
					<path class="st0" d="M328,146.4c1.6-0.6,3.2-2.5,3.5-4.3c0.3-1.7-0.8-2.6-2.5-2c-1.6,0.6-3.2,2.5-3.5,4.3
						C325.2,146.1,326.3,147,328,146.4z"/>
					<path class="st0" d="M319.8,139.7c1.6-0.6,3.2-2.5,3.5-4.3c0.3-1.7-0.8-2.6-2.5-2c-1.6,0.6-3.2,2.5-3.5,4.3
						C317,139.4,318.1,140.3,319.8,139.7z"/>
					
						<ellipse transform="matrix(0.632 -0.775 0.775 0.632 12.0657 298.4264)" class="st2" cx="320.3" cy="136.5" rx="2.2" ry="1.3"/>
				</g>
			</g>
		</g>
		<path class="st2" d="M334.9,147.5c0.4,0.3,0.8,0.2,0.9-0.3c0.1-0.5-0.2-1.2-0.6-1.5c-0.4-0.3-0.8-0.2-0.9,0.3
			C334.2,146.5,334.5,147.2,334.9,147.5z"/>
	</g>
	<path class="st0" d="M259.2,221.1c-1.3,0-2.6-0.4-3.8-1.1l-9.2-5.4c-0.3-0.2-0.4-0.5-0.2-0.8c0.2-0.3,0.5-0.4,0.8-0.2l9.2,5.4
		c1.9,1.2,4.1,1.2,6.1,0.1c2.1-1.2,3.4-3.4,3.4-6c0-6-0.6-13.4-1.3-21.3c-2.2-24.6-4.7-52.5,10.9-56.4c6.9-1.8,12.1-3.6,16.3-5.1
		c12.1-4.3,16.7-5.9,29.2,5.7c0.2,0.2,0.2,0.6,0,0.8c-0.2,0.2-0.6,0.2-0.8,0c-12-11.2-16-9.7-28-5.5c-4.2,1.5-9.5,3.4-16.4,5.1
		c-14.6,3.7-12.1,31.1-10,55.2c0.7,7.9,1.4,15.4,1.4,21.4c0,2.9-1.5,5.6-4,7C261.6,220.7,260.4,221.1,259.2,221.1z"/>
	<g>
		<ellipse class="st4" cx="298.6" cy="219.6" rx="19" ry="10.9"/>
		<g>
			<path class="st5" d="M307.6,214.9c1.1,0.5,1.7,1.6,1.7,2.9c0,0.6-0.1,1.2-0.2,1.4c-0.3,0.7-1.5,1.7-3.2,1
				c-1.8-0.7-5.7-4.4-5.9-6.8C299.6,208.9,304.8,213.7,307.6,214.9z"/>
			<path class="st5" d="M297.2,222.4c0,0,0.4,2.6,0.2,3.1c-0.2,0.5-1.4,1.5-3.3,1.3c-1.8-0.2-7.1-2-8.3-5.5
				c-1.8-5.4,10.1,0.4,10.1,0.4L297.2,222.4z"/>
			<path class="st5" d="M292,180.8l-0.4,40.6c0,1.4,1,2.6,2.2,2.8c0.2,0,0.3,0,0.5,0.1c1.3,0.1,2-0.4,2.4-1c0.3-0.5,0.5-1,0.5-1.6
				l0.5-17.3l2.6-15.5l3.6,27.4c0.1,0.7,0.4,1.4,1,1.8c0.4,0.3,0.9,0.5,1.6,0.4c1,0,1.7-0.6,2.2-1.1c0.3-0.4,0.5-0.9,0.5-1.5
				l-1.4-16.5l-0.5-21L292,180.8z"/>
			<path class="st11" d="M297.3,144.5l0.6,3.7c0,0,0,1.3-1.4,1.6c-1.4,0.3-1.8-0.6-1.8-0.6l-0.6-4.2L297.3,144.5z"/>
			
				<ellipse transform="matrix(0.7147 -0.6995 0.6995 0.7147 -14.7198 245.4779)" class="st11" cx="293.5" cy="140.8" rx="5.4" ry="6"/>
			<path class="st0" d="M297.1,148.2c0.1,0,6-3.8,8.1,0.1c3.5,6.5,3.3,27.3,2.2,29.9c-1,2.5-3.6,4.3-5.4,5.4
				c-1.6,0.9-3.4,1.5-5.3,1.5c-1.8,0-5.4-1.6-5.2-4c0.6-11-0.4-20.4-1.3-29.4C290.3,151.8,291.4,150.6,297.1,148.2z"/>
			<path class="st5" d="M300.4,188.8l3.6,27.4c0.1,0.7,0.4,1.4,1,1.8c0.1,0.1,0.2,0.1,0.3,0.2c-0.7-0.6-2.9-23.6-3.3-26.1
				C301.5,189.5,300.4,188.8,300.4,188.8z"/>
		</g>
		<polygon class="st11" points="278.3,149.5 275.1,139 276.8,138.3 280.6,146.5 		"/>
		<polygon class="st11" points="310.5,141.2 308.1,130.3 306.2,130.3 306.9,139.4 		"/>
		<path class="st0" d="M290.3,151.8c0,0-5.7,1.1-9.4-5.5c-0.3-0.6-1.2-0.7-1.5-0.2c-0.6,0.9-1.4,2.3-1,3.7c1.8,6.5,11.4,8,13.2,11.8
			S290.3,151.8,290.3,151.8z"/>
		<path class="st0" d="M300.8,146.9c0,0,4.5,0.3,5.2-3.6c0.3-2,0.4-3.2,0.5-3.9c0-0.5,0.4-0.8,0.9-0.8c1.1,0.1,2.8,0.5,3,1.2
			c0.3,1.1,1,6.4-3.5,14.6C303.9,159.8,300.8,146.9,300.8,146.9z"/>
		<path class="st11" d="M308.1,130.3l0-1.2c0-0.4-0.1-0.9-0.4-1.2l-1.3-2.1l-0.3-0.4c-0.3-0.4-0.8-0.5-1.3-0.2l-0.3,0.2
			c-0.4,0.2-0.6,0.6-0.6,1.1l0.7,1.8l-0.8-0.2c-0.2,0-0.3,0.1-0.3,0.2l0,0c0,0.1,0,0.3,0.2,0.3l1.3,0.5l1.2,1.7L308.1,130.3z"/>
		<path class="st11" d="M275.1,139.1l-0.4-1.2c-0.1-0.4-0.2-0.9-0.1-1.3l0.5-2.4l0.2-0.5c0.2-0.5,0.6-0.7,1.1-0.6l0.3,0.1
			c0.4,0.1,0.8,0.4,0.9,0.8l0,1.9l0.7-0.4c0.1-0.1,0.3,0,0.4,0.1l0,0c0.1,0.1,0,0.3-0.1,0.4l-1.1,1l-0.6,2.3L275.1,139.1z"/>
		<path class="st1" d="M292.9,159.7c0.5,2.4-0.9,20.9,3.8,25.5c-1.8,0-5.4-1.6-5.2-4c0.4-7.4,0.1-14-0.4-20.3c-1.9-2.4-7-4-10.3-7.1
			C281.1,153.8,292.4,157.3,292.9,159.7z"/>
		<path class="st3" d="M299.2,147.2l-0.8-0.8c0,0-1.3,1.4-2.4,1.6c0,0-1.3,0.4-1.9,0.4l-0.5,1.4
			C293.5,149.8,297.8,149.5,299.2,147.2z"/>
		<path class="st10" d="M293.2,142.9c-0.2,0.1-0.4,0.1-0.6,0c-0.3-0.2-0.9-1.6-1.6-1.5c-1.1,0.2-2.8,2.5-4.8-0.8
			c-1.1-1.7-0.4-2.6-1-3.6c0,0,0.2,0.5,4.6-2.2c4.4-2.7,8.1,0.6,9.2,2.5c1.1,1.9,1.9,5.6-1.1,7.7c-0.5,0.3-3.6-0.3-3.7-0.5
			c-0.1-0.3,0.8-0.7,0.3-1.3C294.2,142.7,293.7,142.6,293.2,142.9z"/>
	</g>
</g>
<g>
	<polygon class="st4" points="28.2,288.6 18.8,283.2 28.2,277.7 37.7,283.2 	"/>
	<polygon class="st10" points="37.7,277 28.2,282.4 28.2,271.5 37.7,266.1 	"/>
	<polygon class="st9" points="28.2,271.5 18.8,266.1 28.2,260.6 37.7,266.1 	"/>
	<polygon class="st9" points="28.2,282.4 18.8,277 18.8,266.1 28.2,271.5 	"/>
</g>
<g>
	<polygon class="st4" points="28.2,113.2 18.8,107.7 28.2,102.3 37.7,107.7 	"/>
	<polygon class="st5" points="37.7,101.5 28.2,107 28.2,96.1 37.7,90.6 	"/>
	<polygon class="st2" points="28.2,96.1 18.8,90.6 28.2,85.2 37.7,90.6 	"/>
	<polygon class="st0" points="28.2,107 18.8,101.5 18.8,90.6 28.2,96.1 	"/>
</g>
<g>
	<polygon class="st4" points="179.9,296.4 170.4,291 179.9,285.5 189.3,291 	"/>
	<polygon class="st5" points="189.3,284.8 179.9,290.2 179.9,279.3 189.3,273.9 	"/>
	<polygon class="st2" points="179.9,279.3 170.4,273.9 179.9,268.4 189.3,273.9 	"/>
	<polygon class="st0" points="179.9,290.2 170.4,284.8 170.4,273.9 179.9,279.3 	"/>
</g>
</svg>
